SplineFontDB: 3.0
FontName: Untitled26
FullName: Untitled26
FamilyName: Untitled26
Weight: Regular
Copyright: Copyright (c) 2015, Pathum Egodawatta
UComments: "2015-8-14: Created with FontForge (http://fontforge.org)"
Version: 001.000
ItalicAngle: 0
UnderlinePosition: -100
UnderlineWidth: 50
Ascent: 819
Descent: 205
InvalidEm: 0
LayerCount: 2
Layer: 0 0 "Back" 1
Layer: 1 0 "Fore" 0
XUID: [1021 779 -1439063335 14695377]
OS2Version: 0
OS2_WeightWidthSlopeOnly: 0
OS2_UseTypoMetrics: 1
CreationTime: 1439542641
ModificationTime: 1439542641
OS2TypoAscent: 0
OS2TypoAOffset: 1
OS2TypoDescent: 0
OS2TypoDOffset: 1
OS2TypoLinegap: 0
OS2WinAscent: 0
OS2WinAOffset: 1
OS2WinDescent: 0
OS2WinDOffset: 1
HheadAscent: 0
HheadAOffset: 1
HheadDescent: 0
HheadDOffset: 1
OS2CapHeight: 0
OS2XHeight: 0
OS2Vendor: 'PfEd'
DEI: 91125
Encoding: Latin 3
UnicodeInterp: none
NameList: AGL For New Fonts
DisplaySize: -48
AntiAlias: 1
FitToEm: 1
WinInfo: 0 38 16
BeginChars: 65536 330

StartChar: uni0041
Encoding: 33 65 0
Width: 516
VWidth: 0
GlyphClass: 2
Flags: HW
LayerCount: 2
Back
Fore
SplineSet
183 590.5 m 1
 199 590.5 l 1
 234 428 l 1
 139 0 l 1
 50 0 l 1
 183 590.5 l 1
225.5 699 m 1
 315 699 l 1
 466.5 0 l 1
 378 0 l 1
 354 110 l 1
 213.5 110 l 1
 232.5 198 l 1
 335.5 198 l 1
 225.5 699 l 1
EndSplineSet
EndChar

StartChar: uni00C6
Encoding: 132 198 1
Width: 727
VWidth: 0
GlyphClass: 2
Flags: HW
LayerCount: 2
Back
Fore
SplineSet
701 89.5 m 1
 701 0 l 1
 362 0 l 1
 362 168 l 1
 245 168 l 1
 264.5 248 l 1
 362 248 l 1
 362 610.5 l 1
 306.5 610.5 l 1
 153.5 0 l 1
 53.5 0 l 1
 233.5 700 l 1
 701 700 l 1
 701 610.5 l 1
 455 610.5 l 1
 452.5 463.5 l 1
 542.5 392.5 l 1
 607 373.5 l 1
 517 303 l 1
 452.5 157.5 l 1
 701 89.5 l 1
EndSplineSet
EndChar

StartChar: uni00C5
Encoding: 131 197 6
Width: 516
VWidth: 0
GlyphClass: 2
Flags: HW
LayerCount: 2
Back
Fore
SplineSet
192 682 m 1
 192 708.5 222 730 248.5 730 c 1
 275 730 301.5 686 301.5 659.5 c 1
 301.5 646.5 234.5 358 226.5 349.5 c 1
 206.5 349.5 l 1
 206.5 349.5 192 669 192 682 c 1
216.367675781 765 m 0
 216.367675781 776.16015625 239.747558594 785.225097656 268.592773438 785.225097656 c 0
 297.752441406 785.225097656 321.132324219 776.16015625 321.132324219 765 c 0
 321.132324219 758.21619654 303.770317231 751.623964044 280.386073904 746.722028077 c 1
 271.386073904 746.722028077 365 398.5 356 398.5 c 1
 347 398.5 345 398.5 336 398.5 c 1
 327 398.5 331 466 322 466 c 1
 313 466 237.5 466 228.5 466 c 1
 219.5 466 241.5 485 232.5 485 c 1
 223.5 485 326.5 485 317.5 485 c 1
 308.5 485 269.616451878 745.675042263 260.616451878 745.675042263 c 1
 235.542525113 749.357232865 216.367675781 756.891122304 216.367675781 765 c 0
192.5 673.5 m 1
 192.5 663 208.5 654.5 219 654.5 c 1
 230 654.5 268.5 523 268.5 533.5 c 1
 268.5 544.5 227 402 216 402 c 1
 205.5 402 192.5 684.5 192.5 673.5 c 1
EndSplineSet
EndChar

StartChar: uni0042
Encoding: 34 66 8
Width: 484
VWidth: 0
GlyphClass: 2
Flags: HW
LayerCount: 2
Back
Fore
SplineSet
166 79.5 m 1
 221.673375593 79.5 265.5 108 265.5 121 c 1
 347 132 364.5 210.5 319.5 247 c 1
 319.5 283.003472055 301 372 246.5 372 c 1
 276.5 372 226.403588499 389.5 216.5 415 c 1
 216.5 440 195.5 473.5 166 474 c 1
 173.60737358 474 246.5 535.5 246.5 535.5 c 1
 306 536 325.5 563.496479048 329.5 599 c 0
 405.5 634 409.5 618 347 588 c 2
 347 588 294.056439916 587.304128137 282.5 587.5 c 1
 282 541.5 265.5 539 248 526 c 1
 271 511 350 492.5 350 450.5 c 1
 426 449.5 456 393 456 347 c 0
 455.5 256.5 392.841721476 187.882421669 317 175 c 1
 331.5 160 344 144 339.5 102.5 c 1
 339.5 42.5 298.368164062 -1 233.5 -0.5 c 1
 233.5 -0.5 175.5 -1 166 -0.5 c 1
 166 79.5 l 1
26 700 m 1
 116.5 700 l 1
 116.5 0 l 1
 26 0 l 1
 26 700 l 1
EndSplineSet
EndChar

StartChar: uni0043
Encoding: 35 67 9
Width: 494
VWidth: 0
GlyphClass: 2
Flags: HW
LayerCount: 2
Back
Fore
SplineSet
280.5 615.5 m 1
 280.5 705 l 1
 375 705.5 468 612 468 516 c 1
 381 493.5 l 1
 381 500.218343882 380.415152571 514.25201084 377.5 522.5 c 1
 357 587.5 280.5 615.5 280.5 615.5 c 1
280.5 84.5 m 1
 280.5 84.5 354.498380205 89.0004828509 375 152.5 c 0
 380.486202364 168.517087446 382 187 382 196.5 c 1
 399 198.5 l 1
 399 145.5 421.5 88.5 373 88.5 c 1
 373 35.5 280.5 84.5 280.5 84.5 c 1
231 705 m 1
 231 615.5 l 1
 151 615 122.5 545.5 122.5 518 c 1
 122.5 181 l 1
 122.5 153.5 151.5 84.5 231 84.5 c 1
 231 -5 l 1
 85.5 -5 32 121 32 181 c 1
 32 518 l 1
 32 578 86 705.5 231 705 c 1
EndSplineSet
EndChar

StartChar: uni0044
Encoding: 36 68 11
Width: 452
VWidth: 0
GlyphClass: 2
Flags: HW
LayerCount: 2
Back
Fore
SplineSet
172 0 m 1
 172 89.5 l 1
 246.5 89.5 333 95 333.5 197 c 2
 333.5 503 l 1
 333.5 588.5 264 610 172 610.5 c 1
 172 700 l 1
 320.5 700 424 636 424 503 c 1
 424 197 l 1
 424 25 282 0 172 0 c 1
32 0 m 1
 32 700 l 1
 122.5 700 l 1
 122.5 0 l 1
 32 0 l 1
EndSplineSet
EndChar

StartChar: uni0045
Encoding: 37 69 12
Width: 422
VWidth: 0
GlyphClass: 2
Flags: HW
LayerCount: 2
Back
Fore
SplineSet
396 89.5 m 1
 396 0 l 1
 32 0 l 1
 32 700 l 1
 396 700 l 1
 396 611 l 1
 122.5 611 l 1
 122.5 393 l 1
 302 393 l 1
 302 303.5 l 1
 122.5 303.5 l 1
 122.5 89.5 l 1
 396 89.5 l 1
EndSplineSet
EndChar

StartChar: uni20AC
Encoding: 306 8364 13
Width: 530
VWidth: 0
GlyphClass: 2
Flags: HW
LayerCount: 2
Back
Fore
SplineSet
284 701.5 m 1
 284 612.5 l 1
 207.5 605 182.5 550 182.5 503 c 2
 182.5 419 l 1
 408.5 419 l 1
 408.5 376.5 l 1
 182.5 376.5 l 1
 182.5 317 l 1
 408.5 317 l 1
 408.5 275 l 1
 182.5 275 l 1
 182.5 191.5 l 2
 182.5 143 215.5 93.5 284 87 c 1
 284 -1.5 l 1
 169.5 1.5 128.5 83 111.5 135.5 c 1
 101 149.5 95 220.5 94 237 c 1
 75 275 l 1
 50.5 287.5 l 1
 69.5 317 l 1
 94 347 l 1
 75 377 l 1
 50.5 389.5 l 1
 69.5 419 l 1
 94 477 l 1
 94 507 180 701 284 701.5 c 1
336.5 365.5 m 1
 361 365 438.498535156 355.000488281 473 387.5 c 0
 494.486328125 378.517089844 504 364.5 504 352 c 1
 452.5 322.5 l 1
 452.5 269.5 406.5 248 358 248 c 1
 358 265 336.5 365.5 336.5 365.5 c 1
336.5 334.5 m 1
 336.5 423.5 l 1
 399 428.5 453 388.5 453 357.5 c 1
 434.5 372 l 1
 434.5 378.718261719 502.415039062 359.751953125 499.5 368 c 1
 479 411 361 335 336.5 334.5 c 1
EndSplineSet
EndChar

StartChar: uni00D0
Encoding: 142 208 18
Width: 476
VWidth: 0
GlyphClass: 2
Flags: HW
LayerCount: 2
Back
Fore
SplineSet
222.5 0 m 1
 222.5 89.5 l 1
 297 89.5 383.5 95 384 197 c 2
 384 503 l 2
 384 588.5 314.5 610 222.5 610.5 c 1
 222.5 700 l 1
 371 700 474.5 636 474.5 503 c 2
 474.5 197 l 2
 474.5 25 332.5 0 222.5 0 c 1
201 396.5 m 1
 229 377.5 l 1
 201 313.5 l 1
 173 146 l 1
 153 0 l 1
 82.5 167.5 l 1
 54.5 313.5 l 1
 26 332.5 l 1
 54 396.5 l 1
 82.5 560 l 1
 102.5 700 l 1
 173 536.5 l 1
 201 396.5 l 1
EndSplineSet
EndChar

StartChar: uni0046
Encoding: 38 70 19
Width: 420
VWidth: 0
GlyphClass: 2
Flags: HW
LayerCount: 2
Back
Fore
SplineSet
300 393 m 1
 300 303.5 l 1
 120.5 303.5 l 1
 120.5 1 l 1
 30 1 l 1
 30 700 l 1
 394 700 l 1
 394 611 l 1
 120.5 611 l 1
 120.5 393 l 1
 300 393 l 1
EndSplineSet
EndChar

StartChar: uni0047
Encoding: 39 71 20
Width: 493
VWidth: 0
GlyphClass: 2
Flags: HW
LayerCount: 2
Back
Fore
SplineSet
273.5 615.5 m 1
 273.5 705 l 1
 369 705.5 461 612 461 516 c 1
 372.5 483.5 l 1
 372.5 544.5 294 615.5 273.5 615.5 c 1
461 353 m 1
 461 176 l 2
 461 95 358 -4.5 273.5 -5 c 1
 273.5 84.5 l 1
 303 84.5 370 128.5 370 190 c 2
 370 269 l 1
 273.5 269 l 1
 273.5 353 l 1
 461 353 l 1
224 -5 m 1
 161.5 -5 26 48 26 192 c 1
 26 524 l 1
 30 587.5 90 705.5 224 705 c 1
 224 615.5 l 1
 159.5 615 116.5 554.5 116.5 508 c 1
 116.5 192 l 2
 117 111.5 201.5 84.5 224 84.5 c 1
 224 -5 l 1
EndSplineSet
EndChar

StartChar: uni0048
Encoding: 40 72 21
Width: 481
VWidth: 0
GlyphClass: 2
Flags: HW
LayerCount: 2
Back
Fore
SplineSet
215.5 396 m 1
 215.5 308 l 1
 134 308 l 1
 134 0 l 1
 43.5 0 l 1
 43.5 700 l 1
 134 700 l 1
 134 396 l 1
 215.5 396 l 1
347 700 m 1
 437.5 700 l 1
 437.5 0 l 1
 347 0 l 1
 347 308 l 1
 265.5 308 l 1
 265.5 396 l 1
 347 396 l 1
 347 700 l 1
EndSplineSet
EndChar

StartChar: HKD
Encoding: 328 22291 22
Width: 843
VWidth: 0
GlyphClass: 2
Flags: HW
LayerCount: 2
Back
Fore
SplineSet
101 614 m 1
 101 573 l 1
 92 573 l 1
 92 488 l 1
 50 488 l 1
 50 698 l 1
 92 698 l 1
 92 614 l 1
 101 614 l 1
283 698 m 1
 325 698 l 1
 299 611 l 1
 326 488 l 1
 284 488 l 1
 257 611 l 1
 283 698 l 1
198 698 m 1
 241 698 l 1
 241 488 l 1
 198 488 l 1
 198 698 l 1
126 698 m 1
 169 698 l 1
 169 488 l 1
 126 488 l 1
 126 573 l 1
 117 573 l 1
 117 614 l 1
 126 614 l 1
 126 698 l 1
EndSplineSet
Refer: 105 36 N 1 0 0 1 322 0 2
EndChar

StartChar: uni0049
Encoding: 41 73 23
Width: 209
VWidth: 0
GlyphClass: 2
Flags: HW
LayerCount: 2
Back
Fore
SplineSet
59 700 m 1
 149.5 700 l 1
 149.5 0 l 1
 59 0 l 1
 59 700 l 1
EndSplineSet
EndChar

StartChar: uni004A
Encoding: 42 74 28
Width: 495
VWidth: 0
GlyphClass: 2
Flags: HW
LayerCount: 2
Back
Fore
SplineSet
215 -5 m 1
 155 -5 26 54 26 193 c 1
 26 242 l 1
 116.5 242 l 1
 116.5 196.5 l 2
 117 116.5 187 85 215 85 c 1
 215 -5 l 1
265 -5 m 1
 265 85 l 1
 289 85 372.5 115.5 373 193 c 2
 373 700 l 1
 463 700 l 1
 463 193 l 1
 463 49 325 -5 265 -5 c 1
EndSplineSet
EndChar

StartChar: uni004B
Encoding: 43 75 29
Width: 475
VWidth: 0
GlyphClass: 2
Flags: HW
LayerCount: 2
Back
Fore
SplineSet
358.5 700 m 1
 453 700 l 1
 254 341 l 1
 457 0 l 1
 363 0 l 1
 159 341 l 1
 358.5 700 l 1
26 700 m 1
 116.5 700 l 1
 116.5 0 l 1
 26 0 l 1
 26 700 l 1
EndSplineSet
EndChar

StartChar: uni004C
Encoding: 44 76 30
Width: 428
VWidth: 0
GlyphClass: 2
Flags: HW
LayerCount: 2
Back
Fore
SplineSet
402 88.5 m 1
 402 0 l 1
 26 0 l 1
 26 700 l 1
 116.5 700 l 1
 116.5 88.5 l 1
 402 88.5 l 1
EndSplineSet
EndChar

StartChar: uni0141
Encoding: 230 321 31
Width: 479
VWidth: 0
GlyphClass: 2
Flags: HW
LayerCount: 2
Back
Fore
SplineSet
426.5 295.5 m 1
 462.5 230 l 1
 199.5 171.5 l 1
 199.5 209.52073886 l 1
 290.431640625 189 l 1
 278.172363281 135.302246094 l 1
 129 165.291745349 l 1
 129 466.5 l 1
 133.5 454.5 l 1
 97.5 331.739247072 l 1
 183 398 l 1
 195.259277344 541.197753906 l 1
 219.5 505.468240584 l 1
 219.5 265 l 1
 426.5 295.5 l 1
EndSplineSet
EndChar

StartChar: uni004D
Encoding: 45 77 32
Width: 676
VWidth: 0
GlyphClass: 2
Flags: HW
LayerCount: 2
Back
Fore
SplineSet
32 0 m 1
 32 496.5 l 1
 41 496.5 l 1
 122.5 299.5 l 1
 122.5 0 l 1
 32 0 l 1
32 700 m 1
 105.5 700 l 1
 333 148 l 1
 494 511.5 l 1
 504 511.5 l 1
 504 310 l 1
 367 0 l 1
 299.5 0 l 1
 32 643 l 1
 32 700 l 1
553.5 700 m 1
 644 700 l 1
 644 0 l 1
 553.5 0 l 1
 553.5 700 l 1
EndSplineSet
EndChar

StartChar: uni004E
Encoding: 46 78 33
Width: 509
VWidth: 0
GlyphClass: 2
Flags: HW
LayerCount: 2
Back
Fore
SplineSet
32 0 m 1
 32 544 l 1
 40 544 l 1
 122.5 411 l 1
 122.5 0 l 1
 32 0 l 1
477 700 m 1
 477 210 l 1
 469 210 l 1
 386.5 343.5 l 1
 386.5 700 l 1
 477 700 l 1
32 700 m 1
 109 700 l 1
 477 110.5 l 1
 477 0 l 1
 433 0 l 1
 32 642 l 1
 32 700 l 1
EndSplineSet
EndChar

StartChar: uni004F
Encoding: 47 79 35
Width: 528
VWidth: 0
GlyphClass: 2
Flags: HW
LayerCount: 2
Back
Fore
SplineSet
236 -5 m 1
 176 -5 40 51 40 195 c 2
 40 524 l 2
 40 584 105 705 237 705 c 1
 237 615 l 1
 165 614.5 130.5 539.5 130.5 508 c 2
 130.5 195 l 2
 130.5 121 206.5 85.5 236 85.5 c 1
 236 -5 l 1
291 -5 m 1
 291 85.5 l 1
 321.5 85.5 397 119.5 397.5 195 c 2
 397.5 508 l 2
 397.5 542 363.5 614.5 291 615 c 1
 291 705 l 1
 422 705 488 583 488 524 c 2
 488 195 l 2
 488 51 351 -5 291 -5 c 1
EndSplineSet
EndChar

StartChar: uni0152
Encoding: 242 338 36
Width: 573
VWidth: 0
GlyphClass: 2
Flags: HW
LayerCount: 2
Back
Fore
SplineSet
478 70.5 m 1
 478 19 l 1
 406.5 19 145 20.5 145 98.5 c 1
 145 322.5 l 1
 145 405.5 228 402 296 402 c 1
 296 629.5 l 1
 219 629.5 125 632.5 125 531 c 1
 125 448.5 l 1
 125 350 398 70.5 478 70.5 c 1
278 331 m 1
 248 331 164.5 359 164.5 431 c 1
 164.5 609.5 l 1
 164.5 639.5 394.5 700 460.5 700 c 1
 460.5 610.5 l 1
 437.5 610 270.5 585 270.5 582.5 c 1
 270.5 284 l 1
 270.5 261 410.5 255 413 255 c 1
 413 255 410.5 236 413 236 c 1
 413 236 295.5 236 298 236 c 1
 298 236 295.5 90 298 90 c 1
 298 90 457.5 90 460 90 c 1
 460 90 457.5 71 460 71 c 1
 460 71 260 71 262.5 71 c 1
 262.5 71 260 90 262.5 90 c 1
 262.5 90 275.5 90 278 90 c 1
 278 331 l 1
EndSplineSet
EndChar

StartChar: uni00D8
Encoding: 150 216 41
Width: 585
VWidth: 0
GlyphClass: 2
Flags: HW
LayerCount: 2
Back
Fore
SplineSet
471.5 326.5 m 1
 510.5 302 l 1
 538.5 302 536 282 536 334.5 c 1
 536 343.592745944 l 1
 536 271.592745944 285.116849204 79.576505352 255.116849204 79.576505352 c 1
 264.000346822 38.1003184074 307.350302932 85.5 331.5 85.5 c 1
 334 85.5 359 72 359.5 95 c 1
 334.208681508 95 281.909885171 190.900246833 266.11571689 240.287473466 c 1
 149.775390625 135.3046875 l 1
 136.340332031 147.739746094 l 1
 136.340332031 124.739746094 203.866416615 156.983237831 206.366416615 156.983237831 c 1
 206.124920982 159.90883388 206 91.914001328 206 95 c 1
 184.5 95 143 274 121.5 309 c 1
 121.5 339 125.5 374 191.5 374 c 1
 152.5 398.5 l 1
 103.5 398.5 128 397 128 368 c 1
 128 368.139619586 l 1
 128 398.139619586 342.401452746 622.22267157 408.401452746 622.22267157 c 1
 400.920176956 651.705028605 373.752687568 615 332 615 c 1
 309 614.5 304 609 304 606.5 c 1
 354.992279033 606.5 386.287126231 493.529435632 397.64862452 463.232965492 c 1
 512.274902344 566.174316406 l 1
 525.709960938 554.239257812 l 1
 525.709960938 556.739257812 480.450092325 545.53376258 457.450092325 546.03376258 c 1
 457.483362221 545.340658312 457.5 615.162388398 457.5 614.5 c 1
 498.5 614.5 526.5 426.5 542 401 c 1
 542 329 501.5 326.5 471.5 326.5 c 1
EndSplineSet
EndChar

StartChar: uni0050
Encoding: 48 80 43
Width: 474
VWidth: 0
GlyphClass: 2
Flags: HW
LayerCount: 2
Back
Fore
SplineSet
166 406.5 m 1
 237.5 406.5 l 2
 299.5 406.5 356 424 356 508 c 0
 356 595.5 303.5 611.5 237 611.5 c 2
 166 611.5 l 1
 166 700 l 1
 359.5 700 448 666 448 512 c 0
 448 337.5 342 318 166 318 c 1
 166 406.5 l 1
26 700 m 1
 116.5 700 l 1
 116.5 0 l 1
 26 0 l 1
 26 700 l 1
EndSplineSet
EndChar

StartChar: uni0025
Encoding: 5 37 44
Width: 629
VWidth: 0
GlyphClass: 2
Flags: HW
LayerCount: 2
Back
Fore
SplineSet
239.745117188 46.158203125 m 1
 239.745117188 53.298828125 333.087890625 428.641601562 340.228515625 428.641601562 c 1
 347.369140625 428.641601562 416.2109375 422.798828125 416.2109375 415.658203125 c 1
 416.2109375 408.517578125 323.369140625 33.1752929688 316.228515625 33.1752929688 c 1
 309.087890625 33.1752929688 239.745117188 39.017578125 239.745117188 46.158203125 c 1
137.245117188 575.658203125 m 0
 137.245117188 612.798828125 167.087890625 642.641601562 204.228515625 642.641601562 c 0
 241.369140625 642.641601562 271.2109375 612.798828125 271.2109375 575.658203125 c 0
 271.2109375 538.517578125 241.369140625 508.675292969 204.228515625 508.675292969 c 0
 167.087890625 508.675292969 137.245117188 538.517578125 137.245117188 575.658203125 c 0
295 47 m 1
 295 77 406.5 470.5 436.5 470.5 c 1
 466.5 470.5 510.5 446.5 510.5 416.5 c 1
 510.5 386.5 399.5 -7 369.5 -7 c 1
 339.5 -7 295 17 295 47 c 1
EndSplineSet
EndChar

StartChar: uni0051
Encoding: 49 81 45
Width: 500
VWidth: 0
GlyphClass: 2
Flags: HW
LayerCount: 2
Back
Fore
SplineSet
224.5 -5 m 1
 161 -5 26 51 26 195 c 2
 26 524 l 2
 26 584 91 705.5 225 705 c 1
 225 615.5 l 1
 151 615 116.5 543.5 116.5 508 c 2
 116.5 195 l 2
 116.5 106.5 210 85 224.5 85 c 1
 224.5 -5 l 1
363.5 24.5 m 1
 420 -58 l 1
 348 -107 l 1
 275 -5 l 1
 275 85 l 1
 287.5 85 382.5 107.5 383 195 c 2
 383 508 l 2
 383 543.5 349 615 275 615.5 c 1
 275 705 l 1
 408 705.5 474 583 474 524 c 2
 474 195 l 2
 474 102 414 53 363.5 24.5 c 1
EndSplineSet
EndChar

StartChar: uni0052
Encoding: 50 82 46
Width: 495
VWidth: 0
GlyphClass: 2
Flags: HW
LayerCount: 2
Back
Fore
SplineSet
172 389.5 m 1
 227.5 389.5 l 2
 316.5 389.5 369 429 369 492 c 0
 369 597 284 614 193 614 c 2
 172 614 l 1
 172 700 l 1
 306.5 700 453 667 453 496 c 0
 453 420 419.5 378 368 352 c 1
 407 332.5 446.885474271 281.256004897 452 217 c 2
 469 0 l 1
 386 0 l 1
 371 178 l 2
 362.144771067 281.048716663 335.5 307.5 172 308 c 1
 172 389.5 l 1
32 700 m 1
 122.5 700 l 1
 122.5 0 l 1
 32 0 l 1
 32 700 l 1
EndSplineSet
EndChar

StartChar: uni0053
Encoding: 51 83 47
Width: 497
VWidth: 0
GlyphClass: 2
Flags: HW
LayerCount: 2
Back
Fore
SplineSet
218.5 700 m 1
 218.5 615 l 1
 192 612 128 579.5 128 510.5 c 0
 128 416.5 272.407714844 410.540039062 346 379.5 c 0
 411 352 474 311 474 206 c 0
 474 97.5 380 -3 268.5 -3 c 1
 268.5 81 l 1
 307 82.5 383.5 125 383.5 206 c 0
 383.5 313 225.5 315 164 341.5 c 0
 91.7179568788 372.512206903 41 412 41 511 c 0
 41 648 166 699.5 218.5 700 c 1
268.5 700 m 1
 376.5 700 439 592 446 553 c 1
 362 525.5 l 1
 343.5 607.5 268.5 615 268.5 615 c 1
 268.5 700 l 1
218.5 -3 m 1
 106.5 -3 34 103 33 158 c 1
 115 187 l 1
 129 94.5 218.5 81 218.5 81 c 1
 218.5 -3 l 1
EndSplineSet
EndChar

StartChar: uni0054
Encoding: 52 84 49
Width: 485
VWidth: 0
GlyphClass: 2
Flags: HW
LayerCount: 2
Back
Fore
SplineSet
459 700 m 1
 459 612 l 1
 287.5 612 l 1
 287.5 0 l 1
 197 0 l 1
 197 612 l 1
 26 612 l 1
 26 700 l 1
 459 700 l 1
EndSplineSet
EndChar

StartChar: uni00DE
Encoding: 156 222 50
Width: 474
VWidth: 0
GlyphClass: 2
Flags: HW
LayerCount: 2
Back
Fore
SplineSet
194 296.5 m 1
 232 296.5 l 2
 282.5 296.5 356.5 306 356.5 398 c 0
 356.5 490 285.5 501.5 231 501.5 c 2
 194 501.5 l 1
 194 590 l 1
 389 593.5 447.062573233 531.994141312 448 400 c 0
 449 248.5 361 202.5 194 208 c 1
 194 296.5 l 1
51 700 m 1
 141.5 700 l 1
 141.5 0 l 1
 51 0 l 1
 51 700 l 1
EndSplineSet
EndChar

StartChar: uni0055
Encoding: 53 85 52
Width: 512
VWidth: 0
GlyphClass: 2
Flags: HW
LayerCount: 2
Back
Fore
SplineSet
231 -5 m 1
 171 -5 32 49 32 193 c 2
 32 700 l 1
 122.5 700 l 1
 122.5 193 l 1
 123 115 208 85 231 85 c 1
 231 -5 l 1
281 -5 m 1
 281 85 l 1
 305 85 388.5 112.5 389 193 c 1
 389 700 l 1
 479 700 l 1
 479 193 l 2
 479 48 342 -5 281 -5 c 1
EndSplineSet
EndChar

StartChar: uni0056
Encoding: 54 86 57
Width: 508
VWidth: 0
GlyphClass: 2
Flags: HW
LayerCount: 2
Back
Fore
SplineSet
26 700 m 1
 117.5 700 l 1
 294 96 l 1
 261 0 l 1
 229 0 l 1
 26 700 l 1
482 700 m 1
 442 569 363 342.5 321 202.5 c 1
 311 202.5 l 1
 271 339.5 l 1
 390.5 700 l 1
 482 700 l 1
EndSplineSet
EndChar

StartChar: uni0057
Encoding: 55 87 58
Width: 725
VWidth: 0
GlyphClass: 2
Flags: HW
LayerCount: 2
Back
Fore
SplineSet
362.5 700 m 1
 351 415 l 1
 425 144 l 1
 391.5 90.5 l 1
 444.5 350 l 1
 362.5 700 l 1
148.5 700 m 1
 240 700 l 1
 415 98 l 1
 382.5 0 l 1
 351.5 0 l 1
 148.5 700 l 1
485 700 m 1
 443 495 l 1
 534 164 l 1
 494.5 257 l 1
 514.5 350 l 1
 468.893593246 507.263471567 l 1
 436.5 414.5 l 1
 431.5 414.5 l 1
 424 440 l 1
 460.423112198 536.472026903 l 1
 485 700 l 1
EndSplineSet
EndChar

StartChar: uni0058
Encoding: 56 88 59
Width: 463
VWidth: 0
GlyphClass: 2
Flags: HW
LayerCount: 2
Back
Fore
SplineSet
328.5 512.411132812 m 1
 350 180.5 l 1
 437.5 0 l 1
 271.75 180.817382812 l 1
 328.5 433.5 l 1
 278.5 350 l 1
 128.5 199.223144531 l 1
 119 530.5 l 1
 37.5 700 l 1
 193.25 530.817382812 l 1
 128.5 274 l 1
 176.5 350 l 1
 328.5 512.411132812 l 1
EndSplineSet
EndChar

StartChar: uni0059
Encoding: 57 89 60
Width: 479
VWidth: 0
GlyphClass: 2
Flags: HW
LayerCount: 2
Back
Fore
SplineSet
26 700 m 1
 120 700 l 1
 276.5 253 l 1
 276.5 0 l 1
 183.5 0 l 1
 183.5 252 l 1
 26 700 l 1
261 461 m 1
 360 700 l 1
 453 700 l 1
 310 321 l 1
 303.5 321 l 1
 261 461 l 1
EndSplineSet
EndChar

StartChar: uni005A
Encoding: 58 90 63
Width: 418
VWidth: 0
GlyphClass: 2
Flags: HW
LayerCount: 2
Back
Fore
SplineSet
125.5 91 m 1
 392.5 91 l 1
 392 0 l 1
 26 0 l 1
 26 88 l 1
 292.5 611 l 1
 26 611 l 1
 26 700 l 1
 392 700 l 1
 392 614 l 1
 125.5 91 l 1
EndSplineSet
EndChar

StartChar: uni0061
Encoding: 65 97 65
Width: 445
VWidth: 0
GlyphClass: 2
Flags: HW
LayerCount: 2
Back
Fore
SplineSet
228 544.845214844 m 1
 281.5 544.845214844 308.149902344 501.321600843 308.149902344 465.845214844 c 2
 364.799804688 465.845214844 392.299804688 270.095214844 392.299804688 245.895019531 c 2
 392.299804688 243.395019531 393.299804688 98.544921875 403.799804688 98.544921875 c 2
 403.799804688 95.794921875 406.399902344 82.595214844 417.950195312 82.595214844 c 1
 419.600097656 63.095214844 l 1
 418.100097656 0.94482421875 l 1
 399.600097656 0.94482421875 390.950195312 10.4448242188 384.950195312 19.9448242188 c 1
 352.130950386 7.475676948 310.149902344 7.544921875 279.149902344 16.8950195312 c 1
 266.5 6.9951171875 250 19.9448242188 230.200195312 19.9448242188 c 1
 256.200195312 19.9448242188 287.049804688 28.4448242188 287.049804688 74.9448242188 c 1
 287.049804688 211.044921875 l 1
 268.049804688 203.544921875 173.700195312 185.044921875 155.700195312 167.044921875 c 1
 166.315894164 161.710913696 169.5 156.694824219 169.5 152.845214844 c 1
 169.5 114.845214844 199 144.245117188 227.5 144.245117188 c 1
 206.600097656 132.145019531 164.25 104.895019531 156.549804688 101.044921875 c 1
 104.75 99.395019531 71.9501953125 127.044921875 71.9501953125 149.495117188 c 2
 71.9501953125 165.345214844 l 2
 71.9501953125 170.845214844 80.9501953125 178.544921875 116.25 190.544921875 c 1
 143.201382266 206.214330169 260.100097656 220.044921875 260.100097656 243.544921875 c 1
 260.100097656 282.544921875 226.100097656 241.944824219 201.600097656 241.944824219 c 1
 148.25 241.944824219 228 544.845214844 228 544.845214844 c 1
179.649902344 464.245117188 m 1
 152.310291689 464.245117188 122 442.592492354 122 411.245117188 c 1
 109.350097656 410.145019531 81.5 408.895019531 81.5 388.544921875 c 1
 81.1900180496 425.320499379 119.5 451.345214844 156 451.345214844 c 1
 179.649902344 464.245117188 l 1
EndSplineSet
EndChar

StartChar: uni00B4
Encoding: 114 180 68
Width: 263
VWidth: 0
GlyphClass: 2
Flags: HW
LayerCount: 2
Back
Fore
SplineSet
127.5 605 m 1
 68 605 l 1
 105 757 l 1
 188.5 757 l 1
 127.5 605 l 1
EndSplineSet
EndChar

StartChar: uni00E6
Encoding: 164 230 70
Width: 550
VWidth: 0
GlyphClass: 2
Flags: HW
LayerCount: 2
Back
Fore
SplineSet
332 441.5 m 1
 304.660389345 441.5 274 419.847375167 274 388.5 c 1
 255.5 452.5 l 1
 255.19001805 489.275577504 296.5 517.5 333 517.5 c 1
 368 517.5 342 441.5 332 441.5 c 1
EndSplineSet
EndChar

StartChar: uni0026
Encoding: 6 38 72
Width: 686
VWidth: 0
GlyphClass: 2
Flags: HW
LayerCount: 2
Back
Fore
SplineSet
287 464 m 1
 315.5 465.5 354 489.5 354 532.5 c 0
 354 557.5 337.5 588 287 594.5 c 1
 287 465.5 l 1
 300 462.5 335 464 335 413 c 1
 322.5 357 270.5 321.5 250 298 c 1
 250 276 287 464 287 464 c 1
317 503.143066406 m 1
 370.5 493.643066406 397 434.5 397 385.5 c 1
 397 348 428.5 265.5 401.5 254.5 c 1
 393.5 243.5 402.5 178 374 167 c 1
 380 176.5 384 168 386 180.5 c 1
 408 184 517.5 215.5 533 233 c 1
 528 197.5 579 121.5 559.5 98 c 1
 661 16 l 1
 481 83.5 l 1
 497 103 498 166 505 208.5 c 1
 493 197.5 452.5 185.5 435 180.5 c 1
 427 140 407.5 191.5 392 173 c 1
 395.5 175.5 317 503.143066406 317 503.143066406 c 1
EndSplineSet
EndChar

StartChar: uni005E
Encoding: 62 94 74
Width: 374
VWidth: 0
GlyphClass: 2
Flags: HW
LayerCount: 2
Back
Fore
SplineSet
42 460 m 1
 191 756 l 1
 249 756 l 1
 398 460 l 1
 316 460 l 1
 219 653 l 1
 123.5 460 l 1
 42 460 l 1
EndSplineSet
EndChar

StartChar: uni007E
Encoding: 94 126 75
Width: 568
VWidth: 0
GlyphClass: 2
Flags: HW
LayerCount: 2
Back
Fore
SplineSet
518 305 m 1
 462 271 418 259 381 259 c 0
 289 259 239 332 157 332 c 0
 127 332 92 323 50 296 c 1
 50 381.5 l 1
 95 407.5 132 416.5 163 416.5 c 0
 250 416.5 299 343.5 387 343.5 c 0
 422 343.5 464 355.5 518 388.5 c 1
 518 305 l 1
EndSplineSet
EndChar

StartChar: uni002A
Encoding: 10 42 76
Width: 394
VWidth: 0
GlyphClass: 2
Flags: HW
LayerCount: 2
Back
Fore
SplineSet
223 478 m 1
 167.5 478 l 1
 167.5 579.729003906 l 1
 86.1689453125 524.001464844 l 1
 54.6215820312 568.5703125 l 1
 152.4296875 633.344726562 l 1
 55.1567382812 698.182617188 l 1
 87.4760742188 742.561035156 l 1
 167.5 691.5390625 l 1
 167.5 785 l 1
 223 785 l 1
 223 688.111816406 l 1
 306.612304688 742.532714844 l 1
 338.659179688 697.963867188 l 1
 240.428710938 632.555175781 l 1
 337.967773438 565.458007812 l 1
 306.1484375 521.079589844 l 1
 223 579.903320312 l 1
 223 478 l 1
EndSplineSet
EndChar

StartChar: uni0040
Encoding: 32 64 77
Width: 803
VWidth: 0
GlyphClass: 2
Flags: HW
LayerCount: 2
Back
Fore
SplineSet
565.58984375 160.899902344 m 1
 560.129882812 152.319824219 567.649902344 90.350097656 543.080078125 90.350097656 c 1
 483.939941406 61.850097656 399.370117188 70.8798828125 341.870117188 108.319824219 c 0
 227.870117188 168.770019531 185.950195312 265.020019531 217.930175781 396.020019531 c 0
 242.890136719 508.020019531 338.970214844 588.879882812 473.319824219 582.640136719 c 1
 554.319824219 582.640136719 645.439941406 541.669921875 645.439941406 441.669921875 c 1
 645.439941406 336.169921875 599 293.5 538 293.5 c 1
 519 293.5 483 222.5 478 234.5 c 1
 469.5 218 451.5 198 418.5 191 c 0
 378.719238281 182.688476562 357.5 195 378 243 c 0
 398.5 320.5 517 372.5 558 465.5 c 0
 590 536.5 532 566.5 479 558.5 c 1
 383.5 558.5 307 501 307 406.5 c 1
 307 311.5 419.5 245 511.5 245 c 1
 563 245 577.5 163.5 617.5 191.5 c 1
 616 186 623 160.5 623 153.5 c 1
 587.5 119 542.5 94 492 94 c 0
 395.5 94 361 196 361 360.5 c 0
 361 524.5 388.5 640 449.5 640 c 0
 434 640 440.5 535.5 440.5 362.5 c 0
 440.5 152 420.5 91.5 479.5 91.5 c 0
 505 91.5 528.5 123 565.58984375 160.899902344 c 1
EndSplineSet
EndChar

StartChar: uni0062
Encoding: 66 98 79
Width: 424
VWidth: -4
GlyphClass: 2
Flags: HW
LayerCount: 2
Back
Fore
SplineSet
21.0498046875 -4.580078125 m 1
 21.0498046875 729.370117188 l 1
 109.799804688 729.370117188 l 1
 109.799804688 -4.580078125 l 1
 21.0498046875 -4.580078125 l 1
312.049804688 387.069824219 m 1
 312.049804688 414.669921875 278.75 452.770019531 236.399902344 453.319824219 c 2
 158.700195312 453.319824219 l 1
 158.700195312 537.220214844 l 1
 236.350097656 537.220214844 l 2
 333.450195312 537.220214844 396.399902344 450.520019531 396.950195312 391.270019531 c 1
 396.950195312 143.470214844 l 2
 396.950195312 94.7700195312 344.5 -4.580078125 234.850097656 -4.580078125 c 2
 158.700195312 -4.580078125 l 1
 158.700195312 79.319824219 l 1
 235.850097656 79.319824219 l 2
 275.25 79.319824219 312.049804688 116.520019531 312.049804688 145.569824219 c 1
 312.049804688 387.069824219 l 1
EndSplineSet
EndChar

StartChar: uni005C
Encoding: 60 92 80
Width: 402
VWidth: 0
GlyphClass: 2
Flags: HW
LayerCount: 2
Back
Fore
SplineSet
351 -23 m 1
 266.5 -23 l 1
 92.5 716 l 1
 176 716 l 1
 351 -23 l 1
EndSplineSet
EndChar

StartChar: uni007C
Encoding: 92 124 81
Width: 205
VWidth: 0
GlyphClass: 2
Flags: HW
LayerCount: 2
Back
Fore
SplineSet
67.5 754 m 1
 137.5 754 l 1
 137.5 -134 l 1
 67.5 -134 l 1
 67.5 754 l 1
EndSplineSet
EndChar

StartChar: uni007B
Encoding: 91 123 82
Width: 407
VWidth: 0
GlyphClass: 2
Flags: HW
LayerCount: 2
Back
Fore
SplineSet
270.5 735 m 1
 270.5 668 l 1
 200.5 668 196 637.5 195.5 469 c 1
 195.5 383 l 2
 195.5 366 182.5 354 158.5 348 c 1
 183.5 340 195.5 325 195.5 304 c 2
 195.5 207 l 1
 195.5 48 221 28.5 270.5 28.5 c 1
 270.5 -38 l 1
 227 -39 203.5 -16.5 200.5 50 c 1
 156 50 112 129.5 112 241 c 2
 112 257 99 309.5 81 319 c 1
 99 342.5 98.5 349.5 81 378 c 1
 99 385.5 111.5 463.5 112 482.5 c 2
 112 557 174.5 735 270.5 735 c 1
EndSplineSet
EndChar

StartChar: uni007D
Encoding: 93 125 83
Width: 407
VWidth: 0
GlyphClass: 2
Flags: HW
LayerCount: 2
Back
Fore
SplineSet
136.5 735 m 1
 191 735 234 708 234 602.5 c 1
 270 602.5 275 546 275 438.5 c 1
 275.5 419.5 288 373 306 365.5 c 1
 288 347.5 278 338 290 319 c 1
 277.5 315 275 258.5 275 248 c 2
 275 136.5 231 84.5 186.5 84.5 c 1
 183.5 -14 162 -21 136.5 -21 c 1
 136.5 11.5 l 1
 204 10.5 231.5 46 231.5 173 c 2
 231.5 297 l 2
 231.5 323.5 254 334.5 284.5 348 c 1
 254.5 358.5 232 368 231.5 395.5 c 1
 231.5 470.5 l 1
 231.5 545 178 735 136.5 735 c 1
EndSplineSet
EndChar

StartChar: uni005B
Encoding: 59 91 84
Width: 258
VWidth: 0
GlyphClass: 2
Flags: HW
LayerCount: 2
Back
Fore
SplineSet
209.5 739 m 1
 209.5 665 l 1
 159.5 665 l 1
 156.5 38 l 1
 209.5 38 l 1
 209.5 -36 l 1
 72.5 -36 l 1
 72.5 739 l 1
 209.5 739 l 1
EndSplineSet
EndChar

StartChar: uni005D
Encoding: 61 93 85
Width: 258
VWidth: 0
GlyphClass: 2
Flags: HW
LayerCount: 2
Back
Fore
SplineSet
48.5 739 m 1
 145.5 720 l 1
 165 332.5 l 1
 69.5 -17 l 1
 48.5 38 l 1
 80.5 19 l 1
 119 296.5 l 1
 88.5 684 l 1
 48.5 739 l 1
EndSplineSet
EndChar

StartChar: uni02D8
Encoding: 283 728 86
Width: 244
VWidth: 0
GlyphClass: 2
Flags: HW
LayerCount: 2
Back
Fore
SplineSet
202 526 m 1
 202 488.899902344 170.5 446.899902344 122 446.899902344 c 0
 73.5 446.899902344 42 488.899902344 42 526 c 1
 90 526 l 1
 90 508 104 494 122 494 c 0
 140 494 154 508 154 526 c 1
 202 526 l 1
EndSplineSet
EndChar

StartChar: uni00A6
Encoding: 100 166 87
Width: 222
VWidth: 0
GlyphClass: 2
Flags: HW
LayerCount: 2
Back
Fore
SplineSet
70.5 754 m 1
 151.5 754 l 1
 151.5 399 l 1
 70.5 399 l 1
 70.5 754 l 1
70.5 221 m 1
 151.5 221 l 1
 151.5 -134 l 1
 70.5 -134 l 1
 70.5 221 l 1
EndSplineSet
EndChar

StartChar: uni2022
Encoding: 300 8226 88
Width: 352
VWidth: 0
GlyphClass: 2
Flags: HW
LayerCount: 2
Back
Fore
SplineSet
71 344.299804688 m 0
 71 403.100097656 117.200195312 450.700195312 176 450.700195312 c 0
 234.799804688 450.700195312 281 403.100097656 281 344.299804688 c 0
 281 285.5 234.799804688 239.299804688 176 239.299804688 c 0
 117.200195312 239.299804688 71 285.5 71 344.299804688 c 0
EndSplineSet
EndChar

StartChar: uni0063
Encoding: 67 99 89
Width: 428
VWidth: 0
GlyphClass: 2
Flags: HW
LayerCount: 2
Back
Fore
SplineSet
252.75 449.169921875 m 1
 250 456.870117188 237.899902344 477.470214844 237.899902344 477.470214844 c 1
 277.850097656 477.470214844 310.299804688 444.766579984 309.75 405.470214844 c 1
 288.600097656 398.470214844 l 1
 288.600097656 439.470214844 278.450195312 444.770019531 252.75 449.169921875 c 1
244.600097656 -1.02978515625 m 1
 244.600097656 82.319824219 l 1
 274.600097656 82.319824219 302.899902344 109.319824219 302.899902344 143.319824219 c 1
 304 143.319824219 335.049804688 137.470214844 337.799804688 144.620117188 c 1
 340 109.418544973 284.8046875 -1.02978515625 244.600097656 -1.02978515625 c 1
100.950195312 465.370117188 m 1
 101.5 489.569824219 128.450195312 522.819824219 186.200195312 522.819824219 c 1
 150.700195312 522.819824219 130 490.819824219 130 468.319824219 c 1
 130 290.520019531 l 1
 130 270.020019531 155.700195312 239.020019531 190.700195312 239.020019531 c 1
 173.649902344 239.020019531 170.899902344 207.370117188 170.899902344 206.270019531 c 1
 110.399902344 206.270019531 86.399902344 124.512940578 86.399902344 148.069824219 c 1
 86.399902344 159.470214844 89.2602539065 203.770019531 111.260253906 249.270019531 c 0
 111.260253906 278.770019531 47.4501953125 465.370117188 100.950195312 465.370117188 c 1
EndSplineSet
EndChar

StartChar: uni02C7
Encoding: 281 711 90
Width: 270
VWidth: 0
GlyphClass: 2
Flags: HW
LayerCount: 2
Back
Fore
SplineSet
126 666 m 1
 129 590 l 1
 126.5 561.5 l 1
 102.5 666 l 1
 161.5 666 l 1
 151 533.5 l 1
 145.5 590 l 1
 126 666 l 1
EndSplineSet
EndChar

StartChar: uni00B8
Encoding: 118 184 92
Width: 219
VWidth: 0
GlyphClass: 2
Flags: HW
LayerCount: 2
Back
Fore
SplineSet
114.5 123 m 1
 180.5 123 l 1
 180.5 57 140 -22.5 26 -22.5 c 1
 26 42 l 1
 73.5 42 114.5 68 114.5 123 c 1
EndSplineSet
EndChar

StartChar: uni00A2
Encoding: 96 162 93
Width: 494
VWidth: 0
GlyphClass: 2
Flags: HW
LayerCount: 2
Back
Fore
SplineSet
218 391 m 1
 218 391 311.498380205 392.000482851 327 444 c 1
 329.986202364 454.017087446 331.5 445 331.5 447.5 c 1
 348.5 388.5 l 1
 348.5 340.449792583 310.279906328 287.173803895 267 280.536929857 c 1
 244 280.036929857 239 237.5 239 235 c 1
 225.5 66.5 l 1
 225.5 64 218 391 218 391 c 1
244.5 749 m 1
 293.5 749 l 1
 293.5 677 l 1
 268 661.5 270 577.5 270 517 c 1
 201 330.5 l 1
 201 305.5 225 264 281.5 264 c 1
 281.5 271 281.5 236 279 242 c 1
 274 253.5 244.5 258 244.5 258 c 1
 244.5 295.734409828 l 1
 180.748108696 302.851361044 157.5 414.900918012 157.5 443 c 1
 157.5 611.5 l 1
 157.5 639.586759478 181.16598174 697.475125594 244.5 704.334206256 c 1
 244.5 749 l 1
280.5 442.5 m 1
 280.5 442.5 310 446 315 457.5 c 1
 317.5 463.5 317.5 445.935063723 317.5 452.935063723 c 1
 360.779906328 445.712400464 399 409.017168981 399 365.5 c 1
 450 344.5 l 1
 450 312.218343882 423.915152571 286.75201084 389.5 280.5 c 1
 369 338.5 316 309.5 316 309.5 c 1
 280.5 442.5 l 1
EndSplineSet
EndChar

StartChar: uni02C6
Encoding: 280 710 94
Width: 270
VWidth: 0
GlyphClass: 2
Flags: HW
LayerCount: 2
Back
Fore
SplineSet
34.5 514 m 1
 109.5 666 l 1
 158.5 666 l 1
 235 514 l 1
 176 514 l 1
 134 599 l 1
 93 514 l 1
 34.5 514 l 1
EndSplineSet
EndChar

StartChar: uni003A
Encoding: 26 58 95
Width: 250
VWidth: 0
GlyphClass: 2
Flags: HW
LayerCount: 2
Back
Fore
SplineSet
74.7451171875 190.658203125 m 0
 74.7451171875 218.798828125 97.087890625 241.641601562 125.228515625 241.641601562 c 0
 153.369140625 241.641601562 175.7109375 218.798828125 175.7109375 190.658203125 c 0
 175.7109375 162.517578125 153.369140625 140.175292969 125.228515625 140.175292969 c 0
 97.087890625 140.175292969 74.7451171875 162.517578125 74.7451171875 190.658203125 c 0
74.2451171875 190.658203125 m 0
 74.2451171875 218.798828125 96.587890625 241.641601562 124.728515625 241.641601562 c 0
 152.869140625 241.641601562 175.2109375 218.798828125 175.2109375 190.658203125 c 0
 175.2109375 162.517578125 152.869140625 140.175292969 124.728515625 140.175292969 c 0
 96.587890625 140.175292969 74.2451171875 162.517578125 74.2451171875 190.658203125 c 0
EndSplineSet
EndChar

StartChar: uni002C
Encoding: 12 44 96
Width: 265
VWidth: 0
GlyphClass: 2
Flags: HW
LayerCount: 2
Back
Fore
SplineSet
155.5 -23 m 1
 72.5 -23 l 1
 109.5 129 l 1
 192.5 129 l 1
 155.5 -23 l 1
EndSplineSet
EndChar

StartChar: uni00A9
Encoding: 103 169 97
Width: 859
VWidth: 0
GlyphClass: 2
Flags: HW
LayerCount: 2
Back
Fore
SplineSet
431.134765625 289.02734375 m 1
 431.134765625 257.834960938 l 1
 376.927734375 260.834960938 309.832519531 305.662597656 306.832519531 386.314941406 c 1
 306.832519531 388.314941406 291.524902344 384.819824219 291.524902344 386.819824219 c 1
 291.524902344 544.004882812 376.582519531 292.52734375 431.134765625 289.02734375 c 1
448.667480469 293.912597656 m 1
 448.667480469 353.827636719 l 1
 501.717285156 353.827636719 550.342285156 348.522460938 550.342285156 344.712402344 c 1
 521.649902344 322.325195312 l 1
 521.649902344 291.237792969 480.228027344 293.912597656 448.667480469 293.912597656 c 1
431.365234375 382.834960938 m 1
 431.365234375 382.834960938 441.865234375 370.919921875 444.865234375 378.419921875 c 1
 411.5 381.919921875 397.657714844 353 397.657714844 335.637695312 c 2
 397.657714844 255.647460938 l 1
 397.657714844 229.5 461 187.220214844 490.397460938 187.220214844 c 1
 490.397460938 156.720214844 460.897460938 112.305175781 431.397460938 112.305175781 c 1
 380.5 112.305175781 396.064941406 155.5 366.564941406 179.647460938 c 1
 366.564941406 189.459960938 396.151855469 234.59765625 366.651855469 270.314941406 c 1
 366.651855469 299 387 382.834960938 431.365234375 382.834960938 c 1
413.5 291.40625 m 1
 413.5 229.865234375 l 1
 311.5 229.865234375 231.307307577 293.181678731 228.5 387.198634134 c 1
 228.5 285 l 1
 228.5 402.5 334.5 449.5 413.5 448.405273438 c 1
 413.5 387.979980469 l 1
 300.5 387.979980469 198 368.5 198 285 c 1
 198 389.352955308 l 1
 199.572260236 328.167683268 282.5 291.40625 413.5 291.40625 c 1
448.5 30.40625 m 1
 602.5 33.90625 731.940491478 175.818020698 735 331.852955308 c 1
 735 332.852955308 735 338 735 339 c 0
 735 518.398016986 588.5 649.479980469 448.5 649.979980469 c 1
 448.5 709.905761719 l 1
 599 709.405761719 794 570.673413415 794 339 c 0
 794 337 794 329.198634134 794 327.198634134 c 1
 788.158726543 119.026010056 615.5 -29.6342773438 448.5 -32.6342773438 c 1
 448.5 30.40625 l 1
EndSplineSet
EndChar

StartChar: uni00A4
Encoding: 98 164 98
Width: 656
VWidth: 0
GlyphClass: 2
Flags: HW
LayerCount: 2
Back
Fore
SplineSet
261.806640625 338.7578125 m 1
 225.189941406 364.967285156 l 1
 215.2578125 379.5625 l 1
 236.7578125 379.5625 293.658691406 406.79296875 306.158691406 395.29296875 c 1
 303.373046875 402.347167969 339.5 442.53004733 339.5 448 c 1
 375.5 498 l 1
 375.5 503.651530613 328.938409366 468.445221729 331.836690964 475.547666716 c 1
 331.836690964 475.047666716 291.7578125 510.9375 291.7578125 510.9375 c 1
 304.689941406 435.532714844 l 1
 341.702220858 402.388195829 l 1
 354.903935968 420.085012822 424.890455526 393 457 393 c 1
 421.5 333.5 l 1
 381.5 333.5 322.5 332 322.5 308.5 c 1
 310 296.5 293 210 271 210 c 2
 271 188.5 293.5 151.5 330 151.5 c 1
 330 189.5 l 1
 297.393338299 189.5 274.880371094 320.603515625 261.806640625 338.7578125 c 1
275.564941406 517.01171875 m 1
 352.2421875 594.4375 l 1
 377.310058594 575.532714844 l 1
 389.810058594 587.032714844 370.543457031 562.16015625 393.043457031 562.16015625 c 1
 380.349609375 579.956542969 361.534413095 595.5 330 595.5 c 1
 330 517.5 l 1
 367.5 517.5 386.5 482.5 386.5 460 c 2
 370 460 367.5 369 367.5 368.5 c 2
 367.5 346.5 345.5 223 308 223 c 1
 308 221.5 312 191.5 327 191.5 c 1
 358.625592176 191.5 383.534648671 207.582105775 396.226204676 225.801964333 c 1
 433.110351562 133.772949219 l 1
 443.041992188 148.367675781 l 1
 420.041992188 148.367675781 361.621658308 193.564109632 349.121658308 205.564109632 c 1
 351.716381174 212.471201428 315.5 186.039167892 315.5 191.5 c 1
 280 323 l 1
 280 328.514558686 278.199707031 510.107910156 275.564941406 517.01171875 c 1
EndSplineSet
EndChar

StartChar: uni0064
Encoding: 68 100 99
Width: 424
VWidth: -4
GlyphClass: 2
Flags: HW
LayerCount: 2
Back
Fore
SplineSet
280.649902344 279.245117188 m 1
 297.149902344 628.745117188 l 1
 277.149902344 563.845214844 l 1
 260.649902344 214.345214844 l 1
 245.799804688 213.794921875 225.100097656 279.245117188 280.649902344 279.245117188 c 1
233.850097656 181.944824219 m 1
 233.850097656 208.444824219 194.549804688 234.444824219 222.049804688 234.444824219 c 1
 281.049804688 618.345214844 l 1
 350.350097656 637.345214844 l 1
 290.850097656 637.345214844 l 1
 249.850097656 637.345214844 213.850097656 602.345214844 213.850097656 567.845214844 c 1
 213.850097656 449.845214844 l 1
 213.850097656 425.345214844 239.350097656 379.345214844 292.350097656 379.345214844 c 1
 350.350097656 379.345214844 l 1
 350.350097656 398.345214844 l 1
 291.350097656 398.345214844 l 1
 267.350097656 398.345214844 233.850097656 422.345214844 233.850097656 450.845214844 c 1
 233.850097656 181.944824219 l 1
EndSplineSet
EndChar

StartChar: uni2020
Encoding: 298 8224 100
Width: 453
VWidth: 0
GlyphClass: 2
Flags: HW
LayerCount: 2
Back
Fore
SplineSet
427 554 m 1
 427 471.5 l 1
 271.5 471.5 l 1
 271.5 -56 l 1
 181 -56 l 1
 181 471.5 l 1
 26 471.5 l 1
 26 554 l 1
 181 554 l 1
 181 764 l 1
 271.5 764 l 1
 271.5 554 l 1
 427 554 l 1
EndSplineSet
EndChar

StartChar: uni2021
Encoding: 299 8225 101
Width: 453
VWidth: 0
GlyphClass: 2
Flags: HW
LayerCount: 2
Back
Fore
SplineSet
181.5 764 m 1
 272 764 l 1
 272 555.5 l 1
 427 555.5 l 1
 427 473 l 1
 272 473 l 1
 272 235 l 1
 427 235 l 1
 427 152.5 l 1
 272 152.5 l 1
 272 -56 l 1
 181.5 -56 l 1
 181.5 152.5 l 1
 26 152.5 l 1
 26 235 l 1
 181.5 235 l 1
 181.5 473 l 1
 26 473 l 1
 26 555.5 l 1
 181.5 555.5 l 1
 181.5 764 l 1
EndSplineSet
EndChar

StartChar: uni00B0
Encoding: 110 176 102
Width: 282
VWidth: 0
GlyphClass: 2
Flags: HW
LayerCount: 2
Back
Fore
SplineSet
102 583 m 0
 102 562 119 545 140 545 c 0
 162 545 179 562 179 583 c 0
 179 605 162 622 140 622 c 0
 119 622 102 605 102 583 c 0
48.1000976562 583 m 0
 48.1000976562 634.200195312 89.7001953125 675 140.100097656 675 c 0
 191.299804688 675 232.899902344 634.200195312 232.899902344 583 c 0
 232.899902344 532.600097656 191.299804688 491 140.100097656 491 c 0
 89.7001953125 491 48.1000976562 532.600097656 48.1000976562 583 c 0
EndSplineSet
EndChar

StartChar: uni00A8
Encoding: 102 168 103
Width: 259
VWidth: 0
GlyphClass: 2
Flags: HW
LayerCount: 2
Back
Fore
SplineSet
204.055664062 678.557617188 m 0
 204.055664062 692.249511719 214.372070312 703.065917969 227.877441406 703.065917969 c 0
 241.381835938 703.065917969 251.697753906 692.249511719 251.697753906 678.557617188 c 0
 251.697753906 665.052734375 241.381835938 654.736328125 227.877441406 654.736328125 c 0
 214.372070312 654.736328125 204.055664062 665.052734375 204.055664062 678.557617188 c 0
68.5556640625 678.557617188 m 0
 68.5556640625 692.249511719 78.8720703125 703.065917969 92.377441406 703.065917969 c 0
 105.881835938 703.065917969 116.197753906 692.249511719 116.197753906 678.557617188 c 0
 116.197753906 665.052734375 105.881835938 654.736328125 92.377441406 654.736328125 c 0
 78.8720703125 654.736328125 68.5556640625 665.052734375 68.5556640625 678.557617188 c 0
EndSplineSet
EndChar

StartChar: uni00F7
Encoding: 181 247 104
Width: 650
VWidth: 0
GlyphClass: 2
Flags: HW
LayerCount: 2
Back
Fore
SplineSet
550 333 m 1
 550 250.5 l 1
 100 250.5 l 1
 100 333 l 1
 550 333 l 1
EndSplineSet
Refer: 175 46 N 1 0 0 1 196 395.5 2
Refer: 175 46 N 1 0 0 1 196 130.5 2
EndChar

StartChar: uni0024
Encoding: 4 36 105
Width: 499
VWidth: 0
GlyphClass: 2
Flags: HW
LayerCount: 2
Back
Fore
SplineSet
228.5 213.731947653 m 1
 192.80442133 216.838285891 175.954976156 257.476311395 187 276 c 1
 217.5 258 269.5 241 269.5 190 c 1
 282.5 82 316.5 39.5 279 23.5 c 1
 279 -47 l 1
 228.5 -47 l 1
 228.5 213.731947653 l 1
238.5 750 m 1
 253.5 659 l 1
 243 656 233 617.154715724 233 605.154715724 c 1
 278.637816296 583.324101454 312.879401575 530.008141728 328.5 503.5 c 1
 309.5 421.5 l 1
 284 483.5 220 489 212.5 492.5 c 1
 177 509.5 238.5 750 238.5 750 c 1
301.5 531.239712526 m 1
 348.203024161 512.054204174 380.422304079 475.41273435 393.5 459 c 1
 428 449.5 392.5 410.5 392.5 356.5 c 1
 390 332.607275001 331.37489911 291.545197332 281 283.666305963 c 1
 281 351.5 l 1
 301.5 351.5 l 1
 301.5 392.5 l 1
 328 392.5 385.5 425 385.5 479.5 c 1
 385.5 525.062940238 341.016984081 538.176917172 301.5 545.186580179 c 1
 301.5 531.239712526 l 1
216 150.336058606 m 1
 204.339825585 152.177829366 158.761308213 153.924263538 152 156.5 c 1
 115.217773438 170.512207031 90.5 217 90.5 263.5 c 1
 56 336.399973361 79.76691117 398.955339277 109.5 427.049553329 c 1
 173 476.5 l 1
 174 448.5 216 438.5 216 438.5 c 1
 216 394.5 l 1
 200 394.5 146 374.5 146 317.5 c 1
 146 280.69957862 180.190312045 266.298616313 216 258.178514563 c 1
 216 150.336058606 l 1
EndSplineSet
EndChar

StartChar: uni02D9
Encoding: 284 729 106
Width: 202
VWidth: 0
GlyphClass: 2
Flags: HW
LayerCount: 2
Back
Fore
SplineSet
48.5 678.149902344 m 0
 48.5 707.549804688 71.6000976562 731.350097656 101 731.350097656 c 0
 130.399902344 731.350097656 153.5 707.549804688 153.5 678.149902344 c 0
 153.5 648.75 130.399902344 625.649902344 101 625.649902344 c 0
 71.6000976562 625.649902344 48.5 648.75 48.5 678.149902344 c 0
EndSplineSet
EndChar

StartChar: uni0131
Encoding: 221 305 107
Width: 174
VWidth: 0
GlyphClass: 2
Flags: HW
LayerCount: 2
Back
Fore
SplineSet
128 0 m 1
 47 0 l 1
 47 516 l 1
 128 516 l 1
 128 0 l 1
EndSplineSet
EndChar

StartChar: uni0065
Encoding: 69 101 108
Width: 434
VWidth: 0
GlyphClass: 2
Flags: HW
LayerCount: 2
Back
Fore
SplineSet
238.399902344 461.095214844 m 1
 236.200195312 479.095214844 l 1
 274.200195312 479.095214844 317.700195312 510.540415311 317.700195312 472.794921875 c 1
 321 407.294921875 l 1
 359.5 407.294921875 240.75 370.995117188 240.75 331.395019531 c 1
 240.75 184.895019531 l 1
 240.75 166.895019531 132.299804688 133.395019531 165.799804688 133.395019531 c 1
 165.799804688 77.544921875 l 1
 112.313476562 75.895019531 87.649902344 106.355958546 103.049804688 129.895019531 c 2
 105.799804688 247.895019531 l 1
 106.334625995 271.961978349 133.799804688 257.995117188 187.299804688 257.995117188 c 1
 184.549804688 238.995117188 l 1
 91.3500976562 238.995117188 36.7001953125 257.794921875 36.7001953125 262.044921875 c 2
 36.7001953125 349.845214844 l 1
 37.25 374.595214844 211.899902344 426.294921875 268 426.294921875 c 1
 270.75 468.294921875 l 1
 270.75 497.794921875 279.899902344 461.095214844 238.399902344 461.095214844 c 1
236.200195312 -0.0048828125 m 1
 236.200195312 81.544921875 l 1
 271.700195312 81.544921875 297.5 110.044921875 302 128.044921875 c 1
 319.049804688 129.145019531 350.100097656 132.595214844 352.299804688 144.145019531 c 1
 342.799804688 112.145019531 280.134765625 -0.0048828125 236.200195312 -0.0048828125 c 1
EndSplineSet
EndChar

StartChar: uni0038
Encoding: 24 56 113
Width: 486
VWidth: 0
GlyphClass: 2
Flags: HW
LayerCount: 2
Back
Fore
SplineSet
271 81.5 m 1
 307.5 86 376.5 128 376.5 198.5 c 0
 376.5 290.5 308 302 269.5 306.5 c 1
 269.5 390.5 l 1
 345 396 371 430 371 498 c 0
 371 562.5 324 611.5 268.5 615.5 c 1
 268.5 698 l 1
 347 698 452 616 452 499 c 0
 452 407 402.5 352 388.5 349 c 1
 416.5 330 460 284.5 460 197.5 c 0
 460 55.5 322 -3.61258874378e-15 272.5 0 c 2
 271.5 0 l 1
 271 81.5 l 1
215 81.5 m 1
 214.5 0 l 1
 213.5 0 l 2
 167 0 26 53 26 199 c 0
 26 280.5 69.5 330 97.5 349 c 1
 83.5 352 33 409.5 33 499 c 0
 33 617 140 698 217.5 698 c 1
 217.5 615.5 l 1
 162 612 114.5 560.5 114.5 498 c 0
 114.5 433 145.5 396 216.5 390.5 c 1
 216.5 306.5 l 1
 168 302 109.5 281 109.5 200 c 0
 109.5 127.5 181.5 87.5 215 81.5 c 1
EndSplineSet
EndChar

StartChar: uni2014
Encoding: 291 8212 114
Width: 906
VWidth: 0
GlyphClass: 2
Flags: HW
LayerCount: 2
Back
Fore
SplineSet
880 334.5 m 1
 880 252 l 1
 26 252 l 1
 26 334.5 l 1
 880 334.5 l 1
EndSplineSet
EndChar

StartChar: uni2013
Encoding: 290 8211 115
Width: 532
VWidth: 0
GlyphClass: 2
Flags: HW
LayerCount: 2
Back
Fore
SplineSet
506 335 m 1
 506 252.5 l 1
 26 252.5 l 1
 26 335 l 1
 506 335 l 1
EndSplineSet
EndChar

StartChar: uni003D
Encoding: 29 61 116
Width: 418
VWidth: 0
GlyphClass: 2
Flags: HW
LayerCount: 2
Back
Fore
SplineSet
368 258 m 1
 368 174.5 l 1
 50 174.5 l 1
 50 258 l 1
 368 258 l 1
368 408.5 m 1
 368 325 l 1
 50 325 l 1
 50 408.5 l 1
 368 408.5 l 1
EndSplineSet
EndChar

StartChar: uni00F0
Encoding: 174 240 117
Width: 420
VWidth: 0
GlyphClass: 2
Flags: HW
LayerCount: 2
Back
Fore
SplineSet
147.5 467 m 1
 147.5 491.375764043 145.759412304 528.5 201 528.5 c 1
 192 538 l 1
 152 538 155 512 155 488.5 c 1
 149 495 141 395.5 130 400.5 c 1
 130 379 155.5 375.5 192 375.5 c 1
 221 370 244.5 339 261 320 c 1
 205.242109189 320 204 375.087802106 204 399 c 1
 204 399 149 460.5 147.5 467 c 1
130.5 427 m 1
 130.5 449.5 156 516 209.5 516 c 1
 234.483985652 516 256.367255645 506.243415322 269.446925363 493.339685404 c 1
 269.446925363 517.912188719 264.212420714 477.76591365 256.226386381 492.37167568 c 1
 220.667480469 482.604003906 l 1
 204.167480469 482.604003906 196.208007812 488.302734375 196.208007812 483.302734375 c 1
 222.772681568 386.772136502 l 1
 206.030628572 396.379200813 188.403980934 396.064535497 189 401.5 c 1
 192 415.5 l 1
 217.146320827 410.853397239 244.892119754 340.781521462 264.799356183 315.280138886 c 1
 291.35546875 324.146972656 l 1
 237.35546875 324.146972656 217.814941406 354.948242188 217.814941406 376.948242188 c 1
 217.814941406 376.948242188 193.478313303 347.647253756 193.478313303 369.647253756 c 1
 203.911706923 349.710433827 210.373330519 301.341913638 210.200683594 288.5 c 2
 210.200683594 288.5 210 119 210 141 c 2
 210 116.574884239 184.320033787 48 130.5 70 c 1
 130.5 70 130.5 67 130.5 89 c 1
 168 89 190 102.5 190 146.5 c 2
 190 146.5 189.683919096 234.852203451 189.683919096 256.852203451 c 2
 189.5 279.5 165.395954913 427 130.5 427 c 1
EndSplineSet
EndChar

StartChar: uni0021
Encoding: 1 33 118
Width: 329
VWidth: 0
GlyphClass: 2
Flags: HW
LayerCount: 2
Back
Fore
SplineSet
113.745117188 32.658203125 m 0
 113.745117188 60.798828125 136.087890625 83.6416015625 164.228515625 83.6416015625 c 0
 192.369140625 83.6416015625 214.7109375 60.798828125 214.7109375 32.658203125 c 0
 214.7109375 4.517578125 192.369140625 -17.8247070312 164.228515625 -17.8247070312 c 0
 136.087890625 -17.8247070312 113.745117188 4.517578125 113.745117188 32.658203125 c 0
122.5 122.5 m 1
 122.5 700 l 1
 207 700 l 1
 207 122.5 l 1
 122.5 122.5 l 1
EndSplineSet
EndChar

StartChar: uni00A1
Encoding: 95 161 119
Width: 210
VWidth: 0
GlyphClass: 2
Flags: HW
LayerCount: 2
Back
SplineSet
26 647 m 0
 26 689 59 722 101 722 c 0
 143 722 176 689 176 647 c 0
 176 605 143 571 101 571 c 0
 59 571 26 605 26 647 c 0
38 534 m 1
 167 534 l 1
 167 0 l 1
 38 0 l 1
 38 534 l 1
EndSplineSet
Fore
EndChar

StartChar: uni0066
Encoding: 70 102 120
Width: 315
VWidth: -4
GlyphClass: 2
Flags: HW
LayerCount: 2
Back
Fore
SplineSet
105.200195312 575.095214844 m 2
 105.200195312 622.345214844 139.75 725.745117188 249.399902344 726.294921875 c 2
 288.450195312 726.294921875 l 1
 269.100097656 642.944824219 l 1
 234.100097656 642.944824219 210.450195312 614.309570313 210.450195312 589.944824219 c 1
 195.049804688 589.395019531 192.299804688 538.745117188 192.299804688 537.095214844 c 1
 223.799804688 517.245117188 l 1
 260.100097656 498.794921875 l 1
 228.600097656 434.995117188 l 1
 192.299804688 215.495117188 l 1
 172.299804688 -4.5048828125 l 1
 105.200195312 214.995117188 l 1
 73.7001953125 434.995117188 l 1
 39.0498046875 453.995117188 l 1
 70.5498046875 517.794921875 l 1
 105.200195312 575.095214844 l 2
EndSplineSet
EndChar

StartChar: uniFB01
Encoding: 326 64257 121
Width: 494
VWidth: 0
GlyphClass: 2
Flags: HW
LayerCount: 2
Back
Fore
SplineSet
298.5 591 m 1
 298.5 594 288.5 627 321.5 627 c 1
 301.5 627 290.5 643.5 290.5 663 c 1
 290.5 683 302.5 680.5 322.5 680.5 c 1
 307.5 680.5 262 651.864746094 282 627.5 c 1
 302 627.5 262 589.5 282 589.5 c 1
 302 589.5 335 589.5 355 589.5 c 1
 375 589.5 335 351.5 355 351.5 c 1
 375 351.5 315 351.5 335 351.5 c 1
 355 351.5 315 571 335 571 c 1
 355 571 262 571 282 571 c 1
 302 571 262 351.5 282 351.5 c 1
 302 351.5 242 351.5 262 351.5 c 1
 282 351.5 242 571 262 571 c 1
 282 571 210.5 571 230.5 571 c 1
 250.5 571 210.5 590 230.5 590 c 1
 250.5 590 242 590 262 590 c 1
 282 590 298.5 611 298.5 591 c 1
205.555664062 567.557617188 m 1
 205.555664062 582.749511719 224.872070312 625.565917969 268.877441406 626.065917969 c 1
 261.381835938 626.065917969 285.697753906 632.249511719 285.697753906 639.557617188 c 1
 285.697753906 647.052734375 278.381835938 594.736328125 285.877441406 594.736328125 c 1
 293.372070312 594.736328125 205.555664062 575.052734375 205.555664062 567.557617188 c 1
EndSplineSet
EndChar

StartChar: uni0035
Encoding: 21 53 122
Width: 492
VWidth: 0
GlyphClass: 2
Flags: HW
LayerCount: 2
Back
Fore
SplineSet
409 618 m 1
 131 617 l 1
 114.5 420 l 1
 135 432.5 165 447 206 447 c 1
 206 366.5 l 1
 163 365 127.5 343.5 100.5 308 c 1
 26 354 l 1
 55 700 l 1
 409 700 l 1
 409 618 l 1
255.5 447 m 1
 401 445.5 466 333 466 223 c 0
 466 80 360.5 2 255.5 0 c 1
 255.5 82 l 1
 312 86.5 382.5 135 382.5 224 c 0
 382.5 323 306.5 364 255.5 366.5 c 1
 255.5 447 l 1
96 152 m 1
 121.5 106 155.5 87.5 206 82 c 1
 206 0 l 1
 122 0 60 46 28 107 c 1
 96 152 l 1
EndSplineSet
EndChar

StartChar: uniFB02
Encoding: 327 64258 123
Width: 398
VWidth: 0
GlyphClass: 2
Flags: HW
LayerCount: 2
Back
Fore
SplineSet
293 276 m 1
 293 298.5 236.5 348 289.5 348 c 1
 332 637.5 l 1
 288.5 289.5 l 1
 274.5 289 252 277.5 252 276 c 1
 252 586.493818683 l 1
 243.370438102 586.484526455 261.5 586.968034108 261.5 586.968034108 c 1
 221.510215572 586.328879553 223 476 223 476 c 1
 190 438 l 1
 221.5 238.5 l 1
 160.5 219.5 l 1
 129 419.5 l 1
 97.5 200 l 1
 77.5 258 l 1
 109 477.5 l 1
 77.5 495.5 l 1
 77.5 518 103 586 154.5 586.5 c 1
 293 586.5 l 1
 293 276 l 1
EndSplineSet
EndChar

StartChar: uni0192
Encoding: 275 402 124
Width: 382
VWidth: 0
GlyphClass: 2
Flags: HW
LayerCount: 2
Back
Fore
SplineSet
141 543.5 m 2
 141 601.5 192 695 295 696 c 2
 356 696 l 1
 338 618.5 l 1
 308 618.5 l 2
 244 618 222 581.5 222 539.5 c 2
 222 495 l 1
 288 496 l 1
 288 419 l 1
 222 419 l 1
 222 -11.5 l 1
 222 -42.5 216 -84 160 -84 c 1
 144.5 -99 l 1
 144.5 -130 128.5 -149 72.5 -149 c 1
 45.5 -149 l 1
 76 -149 97 -74.5 97 -53 c 1
 124.5 187.5 l 1
 138.5 188 109.5 199.5 109.5 201 c 1
 109.5 238 l 1
 141 241.5 l 1
 141 543.5 l 2
EndSplineSet
EndChar

StartChar: uni0034
Encoding: 20 52 125
Width: 483
VWidth: 0
GlyphClass: 2
Flags: HW
LayerCount: 2
Back
Fore
SplineSet
266.5 227.5 m 1
 266.5 145 l 1
 26 145 l 1
 26 227.5 l 1
 266.5 637.5 l 1
 266.5 479.5 l 1
 119.5 227.5 l 1
 266.5 227.5 l 1
457 227.5 m 1
 457 145 l 1
 402.5 145 l 1
 402.5 0 l 1
 317.5 0 l 1
 317.5 701 l 1
 402.5 701 l 1
 402.5 227.5 l 1
 457 227.5 l 1
EndSplineSet
EndChar

StartChar: uni2044
Encoding: 305 8260 126
Width: 728
VWidth: 0
GlyphClass: 2
Flags: HW
LayerCount: 2
Back
Fore
SplineSet
39.5 -2 m 1
 471.5 702 l 1
 522 702 l 1
 93.5 -2 l 1
 39.5 -2 l 1
EndSplineSet
EndChar

StartChar: uni0067
Encoding: 71 103 127
Width: 425
VWidth: 4
GlyphClass: 2
Flags: HW
LayerCount: 2
Back
Fore
SplineSet
237.424804688 -185.529785156 m 1
 16.9248046875 -185.529785156 l 1
 37.8251953125 -104.930175781 l 1
 226.825195312 -104.930175781 l 1
 285.375 -102.946543375 313.725097656 -60.1298828125 313.725097656 -37.4799804688 c 2
 313.725097656 33.169921875 l 1
 302.3359375 24.0698242188 274.524902344 3.97021484375 235.325195312 3.47021484375 c 1
 233.674804688 20.9702148438 l 1
 259.674804688 20.9702148438 291.174804688 108.470214844 291.174804688 133.970214844 c 1
 292.825195312 251.470214844 l 2
 309.875 286.520019531 276.725097656 318.319824219 257.725097656 319.970214844 c 2
 256.225097656 449.220214844 l 1
 256.225097656 450.870117188 252.375 484.169921875 235.325195312 484.169921875 c 1
 261.325195312 484.169921875 284.674804688 468.169921875 291.174804688 458.669921875 c 1
 291.174804688 546.319824219 l 1
 312.825195312 546.319824219 l 1
 319.975097656 546.319824219 327.674804688 267.220214844 333.725097656 265.569824219 c 1
 333.725097656 244.069824219 345.575195312 -184.479980469 237.424804688 -185.529785156 c 1
188.075195312 546.319824219 m 1
 189.725097656 527.319824219 l 1
 157.725097656 527.319824219 132.725097656 433.669921875 132.725097656 413.669921875 c 1
 131.075195312 296.169921875 l 2
 113.475097656 277.169921875 133.125 230.919921875 166.625 229.270019531 c 1
 166.625 81.020019531 l 1
 112.125 79.8701171875 94.024902344 113.15410636 111.075195312 135.620117188 c 2
 112.725097656 255.120117188 l 1
 113.246607969 278.066570965 77.9614257812 546.319824219 188.075195312 546.319824219 c 1
EndSplineSet
EndChar

StartChar: uni00DF
Encoding: 157 223 128
Width: 522
VWidth: 0
GlyphClass: 2
Flags: HW
LayerCount: 2
Back
Fore
SplineSet
110.5 0 m 1
 26 0 l 1
 26 457 l 2
 27 531 16 705 226 705 c 0
 396 705 406 575 406 518 c 2
 406 405.5 l 1
 348.5 406 l 1
 315.006341276 403.323405073 305 377 305 366 c 0
 305 349 310 326 391 299 c 0
 441 282 496 245 496 156.5 c 0
 496 58.5 420 0 327 0 c 2
 199 0 l 1
 199 73.5 l 1
 313 73.5 l 2
 359 74 418.5 92 418.5 153 c 0
 418.5 210 386 216.5 331 244.5 c 0
 283 268.5 228 291.5 228 371 c 0
 228 439 282 468 330 475.5 c 1
 330 487.5 l 2
 330 563 320.5 626.5 225.5 626.5 c 0
 126 626.5 110.5 554 110.5 498 c 2
 110.5 0 l 1
EndSplineSet
EndChar

StartChar: uni0060
Encoding: 64 96 129
Width: 263
VWidth: 0
GlyphClass: 2
Flags: HW
LayerCount: 2
Back
Fore
SplineSet
153 605 m 1
 92.5 757 l 1
 176 757 l 1
 213 605 l 1
 153 605 l 1
EndSplineSet
EndChar

StartChar: uni003E
Encoding: 30 62 130
Width: 414
VWidth: 0
GlyphClass: 2
Flags: HW
LayerCount: 2
Back
Fore
SplineSet
30 500 m 1
 384 315 l 1
 384 267 l 1
 30 79 l 1
 30 162.5 l 1
 272 292 l 1
 30 415 l 1
 30 500 l 1
EndSplineSet
EndChar

StartChar: uni00AB
Encoding: 105 171 131
Width: 475
VWidth: 0
GlyphClass: 2
Flags: HW
LayerCount: 2
Back
Fore
SplineSet
343.5 466 m 1
 343.5 378.5 l 1
 221 292 l 1
 343.5 199 l 1
 343.5 113 l 1
 132.5 270 l 1
 132.5 310 l 1
 343.5 466 l 1
343.5 466 m 1
 343.5 378.5 l 1
 221 292 l 1
 343.5 199 l 1
 343.5 113 l 1
 132.5 270 l 1
 132.5 310 l 1
 343.5 466 l 1
EndSplineSet
EndChar

StartChar: uni00BB
Encoding: 121 187 132
Width: 414
VWidth: 0
GlyphClass: 2
Flags: HW
LayerCount: 2
Back
Fore
SplineSet
131.5 455.5 m 1
 342.5 315 l 1
 342.5 265 l 1
 131.5 123 l 1
 131.5 204 l 1
 264 292 l 1
 131.5 373 l 1
 131.5 455.5 l 1
131.5 455.5 m 1
 342.5 315 l 1
 342.5 265 l 1
 131.5 123 l 1
 131.5 204 l 1
 264 292 l 1
 131.5 373 l 1
 131.5 455.5 l 1
EndSplineSet
EndChar

StartChar: uni2039
Encoding: 303 8249 133
Width: 338
VWidth: 0
GlyphClass: 2
Flags: HW
LayerCount: 2
Back
Fore
SplineSet
182 500 m 1
 284.5 500 l 1
 153.5 292 l 1
 284.5 79 l 1
 182 79 l 1
 51 292 l 1
 182 500 l 1
EndSplineSet
EndChar

StartChar: uni203A
Encoding: 304 8250 134
Width: 338
VWidth: 0
GlyphClass: 2
Flags: HW
LayerCount: 2
Back
Fore
SplineSet
154.5 500 m 1
 285.5 292 l 1
 154.5 79 l 1
 52 79 l 1
 183 292 l 1
 52 500 l 1
 154.5 500 l 1
EndSplineSet
EndChar

StartChar: uni0068
Encoding: 72 104 135
Width: 431
VWidth: -4
GlyphClass: 2
Flags: HW
LayerCount: 2
Back
Fore
SplineSet
104.125 -3.52978515625 m 1
 20.875 -3.52978515625 l 1
 20.875 728.319824219 l 1
 103.075195312 728.319824219 l 1
 103.075195312 500.169921875 l 1
 111.575195312 512.169921875 133.225097656 529.220214844 166.725097656 529.220214844 c 1
 173.325195312 530.870117188 182.674804688 512.970214844 190.375 512.970214844 c 1
 161.375 512.970214844 130.524902344 486.470214844 130.524902344 458.970214844 c 1
 104.125 -3.52978515625 l 1
239.274902344 531.970214844 m 1
 288.678895333 531.970214844 319.424804688 497.825600435 319.424804688 463.470214844 c 1
 372.774902344 461.270019531 404.125 240.120117188 404.125 201.620117188 c 1
 384.125 -3.52978515625 l 1
 321.424804688 178.470214844 l 1
 321.424804688 204.970214844 302.924804688 432.669921875 262.924804688 432.669921875 c 1
 262.924804688 434.870117188 239.274902344 531.970214844 239.274902344 531.970214844 c 1
EndSplineSet
EndChar

StartChar: uni002D
Encoding: 13 45 137
Width: 416
VWidth: 0
GlyphClass: 2
Flags: HW
LayerCount: 2
Back
Fore
SplineSet
366 335 m 1
 366 252.5 l 1
 50 252.5 l 1
 50 335 l 1
 366 335 l 1
EndSplineSet
EndChar

StartChar: uni0069
Encoding: 73 105 138
Width: 204
VWidth: -4
GlyphClass: 2
Flags: HW
LayerCount: 2
Back
Fore
SplineSet
153.205566406 633.377441406 m 0
 153.205566406 604.619628906 128.872070312 580.286132813 99.3774414062 580.286132813 c 0
 69.8818359375 580.286132813 45.5478515625 604.619628906 45.5478515625 633.377441406 c 0
 45.5478515625 662.872558594 69.8818359375 687.206542969 99.3774414062 687.206542969 c 0
 128.872070312 687.206542969 153.205566406 662.872558594 153.205566406 633.377441406 c 0
143.600097656 -4.68017578125 m 1
 56.5 -4.68017578125 l 1
 56.5 537.120117188 l 1
 143.600097656 537.120117188 l 1
 143.600097656 -4.68017578125 l 1
EndSplineSet
EndChar

StartChar: uni00ED
Encoding: 171 237 139
Width: 199
VWidth: 0
GlyphClass: 2
Flags: HW
LayerCount: 2
Back
Fore
SplineSet
140.5 0 m 1
 59.5 0 l 1
 59.5 516 l 1
 140.5 516 l 1
 140.5 0 l 1
129 577 m 1
 108 653 l 1
 106 729 l 1
 152 653 l 1
 129 577 l 1
EndSplineSet
EndChar

StartChar: uni00EF
Encoding: 173 239 141
Width: 199
VWidth: 0
GlyphClass: 2
Flags: HW
LayerCount: 2
Back
Fore
SplineSet
140.5 0 m 1
 59.5 0 l 1
 59.5 516 l 1
 140.5 516 l 1
 140.5 0 l 1
109 651.149902344 m 0
 109 680.549804688 132.100097656 704.350097656 161.5 704.350097656 c 0
 190.899902344 704.350097656 214 680.549804688 214 651.149902344 c 0
 214 621.75 190.899902344 598.649902344 161.5 598.649902344 c 0
 132.100097656 598.649902344 109 621.75 109 651.149902344 c 0
-16 651.149902344 m 0
 -16 680.549804688 7.10009765625 704.350097656 36.5 704.350097656 c 0
 65.8999023438 704.350097656 89 680.549804688 89 651.149902344 c 0
 89 621.75 65.8999023438 598.649902344 36.5 598.649902344 c 0
 7.10009765625 598.649902344 -16 621.75 -16 651.149902344 c 0
EndSplineSet
EndChar

StartChar: uni00EC
Encoding: 170 236 142
Width: 199
VWidth: 0
GlyphClass: 2
Flags: HW
LayerCount: 2
Back
Fore
SplineSet
140.5 0 m 1
 59.5 0 l 1
 59.5 516 l 1
 140.5 516 l 1
 140.5 0 l 1
70.5 577 m 1
 9.5 729 l 1
 93.5 729 l 1
 129.5 577 l 1
 70.5 577 l 1
EndSplineSet
EndChar

StartChar: uni006A
Encoding: 74 106 143
Width: 200
VWidth: 0
GlyphClass: 2
Flags: HW
LayerCount: 2
Back
Fore
SplineSet
148.005859375 270.527832031 m 1
 148.005859375 237.369628906 114.322265625 178.385742188 50.7275390625 178.385742188 c 1
 43.2319335938 178.385742188 5.69775390625 184.569335938 5.69775390625 191.877441406 c 1
 5.69775390625 199.372558594 26.7319335938 269.90625 34.2275390625 269.90625 c 1
 41.7221679688 269.90625 148.005859375 278.022949219 148.005859375 270.527832031 c 1
149.5 327.770019531 m 1
 149.5 282.270019531 107.350097656 215.169921875 34.350097656 215.169921875 c 1
 12.3500976562 215.169921875 -14.2998046875 232.770019531 -14.2998046875 254.770019531 c 1
 -14.2998046875 276.770019531 8.35009765625 314.470214844 30.350097656 314.470214844 c 1
 52.350097656 314.470214844 13.8500976562 314.470214844 35.850097656 314.470214844 c 1
 85.350097656 315.903320313 67.3500976562 343.470214844 89.350097656 368.470214844 c 1
 111.350097656 368.470214844 67.3500976562 643.970214844 89.350097656 643.970214844 c 1
 111.350097656 643.970214844 87.3500976562 643.970214844 109.350097656 643.970214844 c 1
 131.350097656 643.970214844 149.5 349.770019531 149.5 327.770019531 c 1
EndSplineSet
EndChar

StartChar: uni006B
Encoding: 75 107 144
Width: 463
VWidth: -4
GlyphClass: 2
Flags: HW
LayerCount: 2
Back
Fore
SplineSet
108.799804688 -4.55517578125 m 1
 20.0498046875 -4.55517578125 l 1
 20.0498046875 728.345214844 l 1
 108.799804688 728.345214844 l 1
 108.799804688 -4.55517578125 l 1
335.350097656 -4.55517578125 m 1
 135.200195312 265.294921875 l 1
 334.799804688 535.145019531 l 1
 437.950195312 535.145019531 l 1
 236.700195312 265.294921875 l 1
 437.950195312 -4.55517578125 l 1
 335.350097656 -4.55517578125 l 1
EndSplineSet
EndChar

StartChar: uni006C
Encoding: 76 108 145
Width: 192
VWidth: -4
GlyphClass: 2
Flags: HW
LayerCount: 2
Back
Fore
SplineSet
141.774902344 -4.55517578125 m 1
 49.7250976562 -4.55517578125 l 1
 49.7250976562 728.345214844 l 1
 141.774902344 728.345214844 l 1
 141.774902344 -4.55517578125 l 1
EndSplineSet
EndChar

StartChar: uni003C
Encoding: 28 60 146
Width: 420
VWidth: 0
GlyphClass: 2
Flags: HW
LayerCount: 2
Back
Fore
SplineSet
390.5 500 m 1
 390.5 415 l 1
 148.5 292 l 1
 390.5 162.5 l 1
 390.5 79 l 1
 36.5 267 l 1
 36.5 315 l 1
 390.5 500 l 1
EndSplineSet
EndChar

StartChar: uni00AC
Encoding: 106 172 147
Width: 502
VWidth: 0
GlyphClass: 2
Flags: HW
LayerCount: 2
Back
Fore
SplineSet
456.5 208 m 1
 377.5 208 l 1
 377.5 347.5 l 1
 26 347.5 l 1
 26 424 l 1
 456.5 424 l 1
 456.5 208 l 1
EndSplineSet
EndChar

StartChar: uni0142
Encoding: 231 322 148
Width: 424
VWidth: 0
GlyphClass: 2
Flags: HW
LayerCount: 2
Back
Fore
SplineSet
278.5 268 m 1
 294.5 221.5 l 1
 144.5 453.5 l 1
 128.5 500 l 1
 278.5 268 l 1
EndSplineSet
EndChar

StartChar: uni006D
Encoding: 77 109 149
Width: 701
VWidth: 0
GlyphClass: 2
Flags: HW
LayerCount: 2
Back
Fore
SplineSet
374.600097656 390.520019531 m 1
 374.600097656 421.020019531 354.100097656 240.419921875 322.600097656 240.419921875 c 1
 254.399902344 259.419921875 l 1
 309.15625 259.419921875 326.399902344 420.164433359 326.399902344 395.770019531 c 2
 326.399902344 422.169921875 356.100097656 285.370117188 413.850097656 285.370117188 c 1
 397.149902344 285.370117188 l 1
 397.149902344 285.370117188 374.600097656 391.620117188 374.600097656 390.520019531 c 1
309.399902344 390.520019531 m 1
 309.399902344 392.169921875 306.100097656 218.819824219 289.600097656 218.819824219 c 1
 266.299804688 218.819824219 l 1
 266.299804688 473.870117188 l 1
 266.299804688 499.741864029 284.600097656 544.870117188 341.100097656 544.870117188 c 1
 399.399902344 544.870117188 429.100097656 472.520019531 429.100097656 447.770019531 c 1
 397.100097656 447.770019531 309.399902344 420.020019531 309.399902344 390.520019531 c 1
317.899902344 185.919921875 m 1
 317.899902344 215.419921875 337.899902344 445.020019531 369.899902344 445.020019531 c 1
 369.899902344 446.669921875 366.049804688 478.319824219 349.549804688 478.319824219 c 1
 313.515136719 478.319824219 296.197265625 463.963378906 284.25 443.953613281 c 1
 272.302734375 463.963378906 257.784667969 544.870117188 221.75 544.870117188 c 1
 225.049804688 525.870117188 l 1
 280.149902344 525.870117188 318.25 493.169921875 332 453.220214844 c 1
 345.75 464.220214844 363.350097656 285.370117188 386.450195312 285.370117188 c 1
 409.75 285.370117188 l 1
 317.899902344 185.919921875 l 1
EndSplineSet
EndChar

StartChar: uni00B5
Encoding: 115 181 152
Width: 468
VWidth: 0
GlyphClass: 2
Flags: HW
LayerCount: 2
Back
Fore
SplineSet
26 698 m 1
 108 698 l 1
 108 336 l 1
 108 322 137 292 168.5 292 c 2
 168.5 290.5 174 279 189.5 279 c 1
 192 260 l 1
 189.5 199.5 l 1
 155 199.5 132.5 214.5 126.5 216 c 1
 120 216 114 90 108 91.5 c 1
 88 0 l 1
 26 698 l 1
318 700 m 1
 400 700 l 1
 400 698 l 1
 400 321.5 l 2
 400 304 404.5 281.5 437 281.5 c 2
 442 281.5 l 1
 442 201.5 l 1
 437 201.5 l 2
 397 201.5 373 215 353 235 c 1
 327 215 286.5 199.5 239 199.5 c 2
 234 199.5 l 1
 234 279 l 1
 239 279 l 2
 285 279 318 305.5 318 321 c 2
 318 698 l 1
 318 700 l 1
EndSplineSet
EndChar

StartChar: uni00D7
Encoding: 149 215 153
Width: 595
VWidth: 0
GlyphClass: 2
Flags: HW
LayerCount: 2
Back
Fore
SplineSet
295.02580046 431.953536739 m 1
 309.797363281 606.995117188 l 1
 369.146484375 636.646484375 l 1
 354.356783363 462.086582902 l 1
 528.681640625 446.531738281 l 1
 558.33203125 387.182128906 l 1
 383.989515821 402.755358212 l 1
 369.117675781 229.112304688 l 1
 309.268554688 199.461425781 l 1
 324.658568582 372.622383208 l 1
 151.297851562 386.711425781 l 1
 121.646484375 446.060546875 l 1
 295.02580046 431.953536739 l 1
EndSplineSet
EndChar

StartChar: uni006E
Encoding: 78 110 154
Width: 444
VWidth: 0
GlyphClass: 2
Flags: HW
LayerCount: 2
Back
Fore
SplineSet
325.149902344 390.520019531 m 1
 325.149902344 408.669921875 299.299804688 458.319824219 241.799804688 458.319824219 c 1
 239.049804688 478.319824219 l 1
 294.0079623 478.319824219 322.049804688 497.945369204 322.049804688 473.870117188 c 1
 324.799804688 285.370117188 l 1
 383.649902344 285.370117188 393.350097656 232.020019531 393.350097656 207.270019531 c 1
 325.149902344 390.520019531 l 1
108.850097656 390.520019531 m 1
 108.850097656 -0.080078125 l 1
 20.6499023438 -0.080078125 l 1
 20.6499023438 395.770019531 l 2
 20.6499023438 447.721150951 78.3907956912 544.870117188 192.200195312 544.870117188 c 1
 194.950195312 524.870117188 l 1
 163.450195312 524.870117188 108.850097656 418.620117188 108.850097656 390.520019531 c 1
EndSplineSet
EndChar

StartChar: uni0039
Encoding: 25 57 155
Width: 504
VWidth: 0
GlyphClass: 2
Flags: HW
LayerCount: 2
Back
Fore
SplineSet
220.5 274 m 1
 94 274 26 359 26 485 c 0
 26 610 119.5 699 220.5 700 c 1
 220.5 618 l 1
 147 615 104.5 545 104.5 488 c 0
 104.5 394.5 161 354.5 220 352 c 1
 220.5 274 l 1
109 157 m 1
 133 116.5 167.5 86.5 220.5 84 c 1
 220.5 1 l 1
 142.5 1 76 51 43 115 c 1
 109 157 l 1
269.5 2 m 1
 269.5 84 l 1
 337 91.5 393 175.5 393 333 c 1
 376.5 316.5 349.5 274 269.5 274 c 1
 269.5 353 l 1
 319.871949059 353 347 385.90625 347 441 c 0
 357 473.90625 357.5 536 303.5 575 c 1
 303.5 594.5 288.5 635.5 269.5 637.5 c 1
 357 637.5 374.5 614.5 374.5 520.5 c 1
 462 466.5 444 3 269.5 2 c 1
EndSplineSet
EndChar

StartChar: uni0023
Encoding: 3 35 157
Width: 888
VWidth: 0
GlyphClass: 2
Flags: HW
LayerCount: 2
Back
Fore
SplineSet
314.5 22 m 1
 234 22 l 1
 265 197 l 1
 105.5 197 l 1
 121.5 276.5 l 1
 279.5 276.5 l 1
 305 425 l 1
 139 425 l 1
 153 504.5 l 1
 319 504.5 l 1
 350 682 l 1
 430.5 682 l 1
 399 504 l 1
 545.5 504 l 1
 576 682 l 1
 656.5 682 l 1
 625.5 504 l 1
 783.5 504 l 1
 771 424 l 1
 611.5 425 l 1
 585.5 275.5 l 1
 748.5 275.5 l 1
 737 196 l 1
 571.5 197 l 1
 541 22 l 1
 461 22 l 1
 491 197 l 1
 345.5 197 l 1
 314.5 22 l 1
531 425 m 1
 385.5 425 l 1
 359.5 276.5 l 1
 505.5 275.5 l 1
 531 425 l 1
EndSplineSet
EndChar

StartChar: uni006F
Encoding: 79 111 158
Width: 430
VWidth: 0
GlyphClass: 2
Flags: HW
LayerCount: 2
Back
Fore
SplineSet
23.7998046875 394.819824219 m 2
 23.7998046875 443.945588262 78.6095099602 541.819824219 192.699707031 541.819824219 c 1
 196 522.819824219 l 1
 156 522.819824219 134 423.919921875 134 400.419921875 c 1
 130.699707031 295.919921875 l 2
 112.549804688 274.419921875 135.299804688 223.669921875 171.799804688 218.169921875 c 1
 171.799804688 84.220214844 l 1
 116.041913876 73.770019531 94.199707031 110.957919294 110.699707031 134.870117188 c 2
 23.7998046875 394.819824219 l 2
239.049804688 457.919921875 m 1
 239.049804688 541.819824219 l 1
 293.049804688 541.819824219 321.850097656 496.241128398 321.850097656 471.819824219 c 2
 378.5 471.819824219 406 302.069824219 406 277.319824219 c 2
 406 252.894708458 380.320033787 77.069824219 326.5 77.069824219 c 1
 326.5 52.319824219 299.549804688 17.9702148438 242.350097656 17.9702148438 c 1
 279.850097656 17.9702148438 298.549804688 53.4702148438 298.549804688 75.4702148438 c 1
 298.549804688 245.870117188 l 1
 298.549804688 268.370117188 276.549804688 457.919921875 239.049804688 457.919921875 c 1
EndSplineSet
EndChar

StartChar: uni0153
Encoding: 243 339 162
Width: 545
VWidth: 0
GlyphClass: 2
Flags: HW
LayerCount: 2
Back
Fore
SplineSet
360 440 m 1
 358 459 l 1
 393.001432675 459 416.029148531 496.851003623 427.900101257 476.726441844 c 1
 440.424460249 496.784169879 467.206577894 516 502 516 c 1
 537 516 579.5 464 579.5 428 c 1
 543.5 428 518 309 518 288.5 c 1
 393.5 246.5 l 1
 539 213 l 1
 539 211.5 542.5 239 556.5 238.5 c 2
 556.5 268 555 294 524.5 294 c 1
 539.5 294 550.5 324 552.5 334.5 c 1
 590.5 334.5 634.5 305.245605469 634.5 267.5 c 1
 684 183.5 l 1
 518 182.5 l 1
 510.5 150.5 475.5 70.5 440.5 70.5 c 2
 440.5 52.5 439.5 19 473 19 c 1
 453 19 437.5 7 425 17 c 1
 378.374828426 7 337.715230512 18.9500386418 304.981878609 39.2028455901 c 1
 293.108945705 18.7052381062 267.007324276 -1 232 -1 c 1
 232 75 l 1
 269.5 75 294.5 110.5 294.5 132.5 c 2
 310 133 312.5 250.5 312.5 251.5 c 2
 312.5 274 407.5 440 360 440 c 1
27 376 m 2
 27 422.875764043 79.259412304 516 188 516 c 1
 191 497 l 1
 151 497 129 404 129 380.5 c 1
 126 276 l 2
 109.5 254.5 132.5 205.5 169 205 c 1
 169 70.5 l 1
 113.242109189 69 91 103.087802106 106 127 c 2
 27 376 l 2
EndSplineSet
EndChar

StartChar: uni0031
Encoding: 17 49 164
Width: 266
VWidth: 0
GlyphClass: 2
Flags: HW
LayerCount: 2
Back
Fore
SplineSet
128.5 571.5 m 1
 52.5 511.5 l 1
 52.5 640 l 1
 128.5 699 l 1
 213.5 699 l 1
 213.5 0 l 1
 128.5 0 l 1
 128.5 571.5 l 1
EndSplineSet
EndChar

StartChar: uni00BD
Encoding: 123 189 165
Width: 581
VWidth: 0
GlyphClass: 2
Flags: HW
LayerCount: 2
Back
Fore
SplineSet
237 143 m 1
 236 142.5 442 490 442 476 c 1
 454.5 475 l 1
 207 129.5 l 1
 237 143 l 1
EndSplineSet
EndChar

StartChar: uni00BC
Encoding: 122 188 166
Width: 560
VWidth: 0
GlyphClass: 2
Flags: HW
LayerCount: 2
Back
Fore
SplineSet
82.5 297.5 m 1
 279.5 634.5 l 1
 292 686.5 l 1
 95.5 350 l 1
 82.5 297.5 l 1
EndSplineSet
EndChar

StartChar: uni00AA
Encoding: 104 170 167
Width: 227
VWidth: 0
GlyphClass: 2
Flags: HW
LayerCount: 2
Back
Fore
SplineSet
72.2880859375 566.403808594 m 1
 95.76171875 566.403808594 194.229980469 546.563964844 194.229980469 530.392089844 c 1
 194.229980469 430.978027344 l 1
 194.229980469 429.837402344 107.168945312 423.228027344 111.775878906 423.228027344 c 1
 112.434082031 423.228027344 l 1
 112.434082031 414.339355469 l 1
 111.775878906 414.339355469 l 1
 103.658691406 414.339355469 100.587890625 418.669921875 97.955078125 423 c 1
 92.484375 417.31640625 81.062988281 414.339355469 72.2880859375 414.339355469 c 1
 72.2880859375 423 l 1
 83.695800781 423 97.955078125 426.875 97.955078125 448.072753906 c 1
 97.955078125 482.032714844 l 1
 89.619140625 478.613769531 47.4985351562 470.180664062 39.6005859375 461.975097656 c 1
 37.01953125 459.29296875 36.9677734375 448.983398438 36.9677734375 446.4765625 c 1
 36.9677734375 429.154296875 49.9111328125 423 62.416015625 423 c 1
 62.416015625 414.339355469 l 1
 41.1362304688 414.339355469 28.1928710938 428.698242188 28.1928710938 441.690429688 c 1
 28.1928710938 452.174804688 l 1
 28.1928710938 459.696289062 29.7290039062 467.217773438 38.9423828125 472.687988281 c 1
 50.767578125 479.830566406 97.955078125 486.135253906 97.955078125 496.84765625 c 1
 97.955078125 514.626464844 83.037109375 524.19921875 72.2880859375 524.19921875 c 1
 72.2880859375 566.403808594 l 1
97.416015625 667.243164062 m 1
 80.9204101562 666.743164062 64.845703125 654.372558594 64.845703125 632.083007812 c 1
 56.7290039062 633.273925781 l 1
 56.5927734375 650.038574219 48.9008789062 672.403808594 64.916015625 672.403808594 c 1
 97.416015625 667.243164062 l 1
71 565.5 m 1
 160 565.5 l 1
 183 565.5 194.5 536 194.5 526 c 1
 107 474 l 1
 107 473 71 565.5 71 565.5 c 1
EndSplineSet
EndChar

StartChar: uni00BA
Encoding: 120 186 168
Width: 230
VWidth: 0
GlyphClass: 2
Flags: HW
LayerCount: 2
Back
Fore
SplineSet
26 432 m 1
 204 432 l 1
 204 387 l 1
 26 387 l 1
 26 432 l 1
EndSplineSet
EndChar

StartChar: uni00F8
Encoding: 182 248 169
Width: 459
VWidth: 0
GlyphClass: 2
Flags: HW
LayerCount: 2
Back
Fore
SplineSet
358 484 m 1
 384.5 473 l 1
 420.618626089 473 410.486970357 422.10911704 422.002737797 401.29705001 c 1
 444.799316406 308.198242188 l 1
 444.799316406 285.698242188 433.815429688 222.456542969 381.815429688 222.456542969 c 1
 350.093343527 196.122510442 l 1
 350.699063219 193.055693321 351 249.153003765 351 246.5 c 1
 354 129 l 2
 369.5 105.074707031 346.319824219 70 292.5 75.5 c 1
 292.5 149 l 1
 330 149 289 126.5 289 148.5 c 1
 290 141 295 237.616653567 307.5 237.616653567 c 1
 174.995610564 113.378567971 l 1
 184.792895329 95.1273963328 204.951834696 18 230.5 18 c 1
 227.5 -1 l 1
 161.383508566 -1 116.650751773 33.7564490749 91.9121116753 71.1738785666 c 1
 47.0844726562 30.2026367188 l 1
 7.068359375 74.9443359375 l 1
 68.0819357303 130.670338346 l 1
 67.024231086 134.777608253 66.5 255.120291402 66.5 258.5 c 2
 66.5 281 92 446 145.5 446 c 2
 145.5 470.375976562 175.259277344 516 230.5 516 c 1
 230.5 438 l 1
 190.5 438 165.5 404 165.5 380.5 c 2
 149 380.5 146.5 263.5 146.5 258.5 c 2
 146.5 258.193523739 146.505181517 202.883897928 146.515502552 202.571274634 c 1
 347.179645393 386.831115994 l 1
 337.781760615 412.550947223 385.226027708 484 358 484 c 1
EndSplineSet
EndChar

StartChar: uni0070
Encoding: 80 112 171
Width: 432
VWidth: 4
GlyphClass: 2
Flags: HW
LayerCount: 2
Back
Fore
SplineSet
232.450195312 4.544921875 m 2
 162 4.544921875 l 1
 162 88.444824219 l 1
 234.549804688 88.444824219 l 1
 293.899902344 88.9951171875 319.149902344 124.245117188 319.149902344 154.694824219 c 2
 319.149902344 395.145019531 l 1
 319.149902344 422.794921875 285.75 462.444824219 226.25 462.444824219 c 2
 154.649902344 462.444824219 l 1
 154.649902344 546.345214844 l 1
 226.25 546.345214844 l 2
 344.100097656 546.345214844 405.149902344 455.095214844 405.149902344 398.294921875 c 2
 405.149902344 150.495117188 l 1
 405.149902344 94.845214844 351.100097656 4.544921875 232.450195312 4.544921875 c 2
20.8500976562 546.345214844 m 1
 109.600097656 546.345214844 l 1
 109.600097656 -186.555175781 l 1
 20.8500976562 -186.555175781 l 1
 20.8500976562 546.345214844 l 1
EndSplineSet
EndChar

StartChar: uni00B6
Encoding: 116 182 172
Width: 444
VWidth: 0
GlyphClass: 2
Flags: HW
LayerCount: 2
Back
Fore
SplineSet
281 705 m 1
 281 -5 l 1
 224.5 -5 l 1
 224.5 329 l 1
 120.5 329 55.5 403 55.5 517 c 0
 55.5 617 122.5 705 224.5 705 c 0
 252.5 705 253 705 281 705 c 1
388.5 705 m 1
 388.5 -5 l 1
 332 -5 l 1
 332 705 l 1
 388.5 705 l 1
EndSplineSet
EndChar

StartChar: uni0028
Encoding: 8 40 173
Width: 281
VWidth: 0
GlyphClass: 2
Flags: HW
LayerCount: 2
Back
Fore
SplineSet
231 720 m 1
 231.5 665 l 1
 192.5 642 156.286621094 617.499023438 156 521.5 c 2
 156.5 224.5 l 2
 156.503417969 222.5 156.5 197 156.5 195 c 0
 156.5 91 197 56.5 232 34.5 c 1
 232 -21 l 1
 106.5 37.5 84.5 96 84.5 189 c 1
 84.5 510 l 1
 84.5 652 151.5 686 231 720 c 1
EndSplineSet
EndChar

StartChar: uni0029
Encoding: 9 41 174
Width: 330
VWidth: 0
GlyphClass: 2
Flags: HW
LayerCount: 2
Back
Fore
SplineSet
101 727.5 m 1
 209 687.5 260.5 625.5 260.5 510 c 1
 260.5 189 l 1
 260.5 126 243 28 101 -28 c 1
 101 32.5 l 1
 136 54.5 182 85 181 202 c 0
 180.985351562 204 181 206 181 208 c 2
 181 521 l 2
 180.5 612.5 139.5 644.5 100.5 667.5 c 1
 101 727.5 l 1
EndSplineSet
EndChar

StartChar: uni002E
Encoding: 14 46 175
Width: 251
VWidth: 0
GlyphClass: 2
Flags: HW
LayerCount: 2
Back
Fore
SplineSet
74.7451171875 28.658203125 m 0
 74.7451171875 56.798828125 97.087890625 79.6416015625 125.228515625 79.6416015625 c 0
 153.369140625 79.6416015625 175.7109375 56.798828125 175.7109375 28.658203125 c 0
 175.7109375 0.517578125 153.369140625 -21.8247070312 125.228515625 -21.8247070312 c 0
 97.087890625 -21.8247070312 74.7451171875 0.517578125 74.7451171875 28.658203125 c 0
EndSplineSet
EndChar

StartChar: uni2030
Encoding: 302 8240 177
Width: 897
VWidth: 0
GlyphClass: 2
Flags: HW
LayerCount: 2
Back
Fore
SplineSet
78.5 -1 m 1
 509.5 701 l 1
 558.5 701 l 1
 131 -1 l 1
 78.5 -1 l 1
EndSplineSet
EndChar

StartChar: uni002B
Encoding: 11 43 178
Width: 475
VWidth: 0
GlyphClass: 2
Flags: HW
LayerCount: 2
Back
Fore
SplineSet
425 335 m 1
 425 252.5 l 1
 278 252.5 l 1
 278 87 l 1
 194.5 87 l 1
 194.5 252.5 l 1
 50 252.5 l 1
 50 335 l 1
 194.5 335 l 1
 194.5 498 l 1
 278 498 l 1
 278 335 l 1
 425 335 l 1
EndSplineSet
EndChar

StartChar: uni00B1
Encoding: 111 177 179
Width: 575
VWidth: 0
GlyphClass: 2
Flags: HW
LayerCount: 2
Back
Fore
SplineSet
451 167 m 1
 451 84.5 l 1
 75 84.5 l 1
 75 167 l 1
 451 167 l 1
EndSplineSet
Refer: 178 43 N 1 0 0 1 0 161 2
EndChar

StartChar: uni0071
Encoding: 81 113 180
Width: 429
VWidth: 4
GlyphClass: 2
Flags: HW
LayerCount: 2
Back
Fore
SplineSet
166 83.194824219 m 2
 166 82.095214844 218.700195312 69.9951171875 239.600097656 69.444824219 c 1
 256.649902344 88.444824219 l 1
 205.149902344 23.544921875 l 1
 166.149902344 23.544921875 127.700195312 50.544921875 127.700195312 76.044921875 c 2
 65.5498046875 76.044921875 38.0498046875 241.694824219 37.5 266.995117188 c 1
 37.5 287.495117188 57 449.794921875 100 449.794921875 c 2
 100 474.544921875 181.5 527.345214844 240.350097656 527.345214844 c 1
 257.399902344 546.345214844 l 1
 203.399902344 481.444824219 l 1
 144.399902344 481.444824219 103.850097656 436.944824219 103.850097656 410.944824219 c 2
 86.25 410.944824219 83.5 280.294921875 83.5 279.194824219 c 1
 83.5 252.694824219 109.5 83.194824219 166 83.194824219 c 2
393.950195312 546.345214844 m 1
 374.5 162.444824219 l 1
 306.299804688 -186.555175781 l 1
 325.75 197.345214844 l 1
 393.950195312 546.345214844 l 1
EndSplineSet
EndChar

StartChar: uni003F
Encoding: 31 63 181
Width: 460
VWidth: 0
GlyphClass: 2
Flags: HW
LayerCount: 2
Back
Fore
SplineSet
146.745117188 28.658203125 m 0
 146.745117188 56.798828125 169.087890625 79.6416015625 197.228515625 79.6416015625 c 0
 225.369140625 79.6416015625 248.2109375 56.798828125 248.2109375 28.658203125 c 0
 248.2109375 0.517578125 225.369140625 -21.8247070312 197.228515625 -21.8247070312 c 0
 169.087890625 -21.8247070312 146.745117188 0.517578125 146.745117188 28.658203125 c 0
84.5 554.5 m 1
 30 611 l 1
 60 649 110 703 218 703 c 0
 346 703 426 620 430 491 c 1
 430 293.856642739 239 276 239 276 c 1
 239 118.5 l 1
 155.5 118.5 l 1
 155.5 351 l 1
 272.5 353 347 385 347 492 c 0
 347 566 292 619 214 619 c 0
 148 619 105.5 582.5 84.5 554.5 c 1
EndSplineSet
EndChar

StartChar: uni0022
Encoding: 2 34 183
Width: 407
VWidth: 0
GlyphClass: 2
Flags: HW
LayerCount: 2
Back
Fore
SplineSet
177 465 m 1
 93.5 465 l 1
 93.5 736 l 1
 177 736 l 1
 177 465 l 1
313.5 465 m 1
 230 465 l 1
 230 736 l 1
 313.5 736 l 1
 313.5 465 l 1
EndSplineSet
EndChar

StartChar: quotedbl.alt
Encoding: 329 -1 184
Width: 359
VWidth: 0
GlyphClass: 2
Flags: HW
LayerCount: 2
Back
Fore
SplineSet
153 476 m 1
 26 476 l 1
 26 700 l 1
 153 700 l 1
 153 476 l 1
333 476 m 1
 206 476 l 1
 206 700 l 1
 333 700 l 1
 333 476 l 1
EndSplineSet
EndChar

StartChar: uni0027
Encoding: 7 39 191
Width: 227
VWidth: 0
GlyphClass: 2
Flags: HW
LayerCount: 2
Back
Fore
SplineSet
156 465 m 1
 72.5 465 l 1
 72.5 736 l 1
 156 736 l 1
 156 465 l 1
EndSplineSet
EndChar

StartChar: uni0072
Encoding: 82 114 192
Width: 334
VWidth: 0
GlyphClass: 2
Flags: HW
LayerCount: 2
Back
Fore
SplineSet
49.9501953125 541.794921875 m 1
 138.149902344 541.794921875 l 1
 138.149902344 465.194824219 l 1
 156.200195312 496.544921875 205.600097656 541.294921875 271.350097656 541.294921875 c 2
 290 541.294921875 l 1
 269.600097656 456.245117188 l 1
 202.75 455.694824219 138.149902344 377.044921875 138.149902344 303.044921875 c 2
 138.149902344 -0.0048828125 l 1
 49.9501953125 -0.0048828125 l 1
 49.9501953125 541.794921875 l 1
EndSplineSet
EndChar

StartChar: uni00AE
Encoding: 108 174 193
Width: 404
VWidth: 0
GlyphClass: 2
Flags: HW
LayerCount: 2
Back
Fore
SplineSet
183.653808594 465.172851562 m 1
 197.82421875 444.172851562 l 1
 173.785644531 444.672851562 144.306152344 489.171386719 144.306152344 546.528808594 c 0
 144.306152344 569.627929688 125.752441406 570.046386719 107.198730469 570.546386719 c 1
 107.198730469 632.546386719 154.653808594 659.546386719 184.653808594 659.546386719 c 1
 185.153808594 659.546386719 185.153808594 664.986816406 185.653808594 664.986816406 c 1
 202.25390625 664.986816406 232.525390625 646.998046875 232.525390625 616.028808594 c 1
 203.025390625 604.311035156 163.608886719 572.649414062 155.656738281 527.94140625 c 1
 162.016113281 491.767089844 169.017089844 561.700683594 169.886230469 509.108886719 c 1
 170.386230469 474.608886719 172.257324219 520.336914062 172.257324219 478.836914062 c 1
 172.757324219 444.336914062 166.677734375 520.336914062 166.677734375 478.836914062 c 1
 167.177734375 444.336914062 164.584960938 545.16796875 164.584960938 503.66796875 c 1
 163.590820312 486.897949219 158.865722656 566.372070312 123.153808594 524.872070312 c 1
 123.653808594 490.372070312 151.153808594 466.672851562 183.653808594 465.172851562 c 1
181.796386719 511.486816406 m 1
 214.296386719 512.986816406 247.875976562 541.486816406 248.875976562 575.986816406 c 1
 248.875976562 576.486816406 248.875976562 478.836914062 248.875976562 479.336914062 c 1
 248.875976562 519.836914062 211.296386719 546.836914062 181.796386719 546.836914062 c 1
 181.796386719 511.486816406 l 1
198.659667969 464.710449219 m 1
 200.8046875 458.614257812 l 1
 170 458.614257812 139.5 501.938487078 139.5 545.5 c 0
 139.5 552.5 134.5 558 127.5 558 c 1
 127.5 610.71050859 167.5 639.055175781 200.5 639.055175781 c 1
 200.5 652.015136719 l 1
 183.5 652.015136719 162.5 607.269793251 162.5 547.945655027 c 1
 163.024707348 502.240848016 161 464.710449219 198.659667969 464.710449219 c 1
181 504.729003906 m 1
 219.5 504.729003906 268.456651803 539.895814397 269.5 575.891327169 c 1
 269.5 478.5 l 1
 269.5 520.188100888 217 553.004882812 181 553.004882812 c 1
 181 558.323242188 l 1
 215.5 558.323242188 255 526.205918706 255 479 c 1
 255 476.5 l 1
 255 434.287396676 218 400.263671875 181 400.263671875 c 1
 181 504.729003906 l 1
EndSplineSet
EndChar

StartChar: uni02DA
Encoding: 285 730 194
Width: 244
VWidth: 0
GlyphClass: 2
Flags: HW
LayerCount: 2
Back
Fore
SplineSet
90 526 m 0
 90 508 104 494 122 494 c 0
 140 494 154 508 154 526 c 0
 154 544 140 558 122 558 c 0
 104 558 90 544 90 526 c 0
40.3999023438 526 m 0
 40.3999023438 571.049804688 76.9501953125 607.600097656 122 607.600097656 c 0
 167.049804688 607.600097656 203.600097656 571.049804688 203.600097656 526 c 0
 203.600097656 480.950195312 167.049804688 444.399902344 122 444.399902344 c 0
 76.9501953125 444.399902344 40.3999023438 480.950195312 40.3999023438 526 c 0
EndSplineSet
EndChar

StartChar: uni0073
Encoding: 83 115 195
Width: 428
VWidth: 0
GlyphClass: 2
Flags: HW
LayerCount: 2
Back
Fore
SplineSet
12.6499023438 141.794921875 m 1
 31.6000976562 146.395019531 l 1
 31.6000976562 114.395019531 128.700195312 102.944824219 154.700195312 102.944824219 c 1
 154.700195312 82.294921875 l 1
 107.299804688 71.845214844 14.2998046875 74.0952148438 12.6499023438 141.794921875 c 1
396.950195312 393.895019531 m 1
 377.450195312 389.794921875 l 1
 377.450195312 426.794921875 273.850097656 434.345214844 253.350097656 434.345214844 c 1
 253.350097656 455.495117188 l 1
 299.708464027 478.044921875 396.950195312 462.788186563 396.950195312 393.895019531 c 1
180.649902344 462.895019531 m 1
 157.649902344 462.895019531 121.549804688 440.895019531 121.549804688 405.895019531 c 0
 99.5498046875 373.694824219 138.312587189 357.85422625 207.950195312 332.194824219 c 0
 223.950195312 318.294921875 272.200195312 294.745117188 349.75 239.395019531 c 0
 378.350097656 185.895019531 367.918266333 131.245117188 320.399902344 85.595214844 c 1
 320.399902344 28.9448242188 278.600097656 13.3452148438 227.450195312 13.3452148438 c 1
 254.450195312 13.3452148438 291.799804688 33.8452148438 291.799804688 73.8452148438 c 1
 291.799804688 108.845214844 232.299804688 177.544921875 175.799804688 191.044921875 c 1
 160.352220016 194.735937681 127.950195312 204.544921875 127.950195312 242.544921875 c 1
 136.200195312 296.595214844 203.049804688 324.595214844 234.549804688 342.745117188 c 1
 234.549804688 367.495117188 180.649902344 462.895019531 180.649902344 462.895019531 c 1
EndSplineSet
EndChar

StartChar: uni00A7
Encoding: 101 167 197
Width: 522
VWidth: 0
GlyphClass: 2
Flags: HW
LayerCount: 2
Back
Fore
SplineSet
395.3203125 187.927246094 m 1
 388.459041233 206.338889214 374.71518794 219.846479687 356 236.5 c 0
 350.780292065 259.937328385 326.173835386 272.686848979 298 282.906610581 c 1
 298 335.535615889 l 1
 345.874786264 320.755499383 392.5 299.183081271 406.5 254 c 0
 437 187 433.496582031 137.361328125 378 86.791015625 c 1
 378 55.791015625 331.5 30 309.5 13 c 1
 313 3 314.5 -28.5 314.5 -42.5 c 1
 314.5 -112 307.5 -136.541992188 273.5 -136.541992188 c 2
 337.499949981 -136.598571091 315 -89.8367244733 315 -45.5 c 1
 315 -32.036684528 313.166015625 45.1577148438 309.878417969 54.524902344 c 1
 331.716435519 74.1741041125 397.5 102.188841685 397.5 130.5 c 1
 414 184.5 395 212.5 360.5 237 c 0
 347.970409826 250.950219024 324.831278427 261.70894127 298 272.218047821 c 1
 298 328.625322697 l 1
 345.831310566 319.408295015 403 305.367123605 408.5 254 c 0
 413 227.075604137 405.951660156 205.069335938 395.3203125 187.927246094 c 1
258 608.886489394 m 1
 225.466309459 618.478062984 252.5 634.627453911 252.5 668.5 c 1
 252.5 710.7578125 280.501044437 674.103930351 342.5 674.358398438 c 1
 325 674.5 l 1
 308.5 674.5 298 683 298 668 c 1
 298 657.5 254.5 649.854980469 262.5 643.354980469 c 1
 227.000310947 643.249916218 167 546 167 474 c 1
 160.5 461.707787452 157.001464844 451.952636719 156.596679688 444.848144531 c 1
 131.767518786 432.665378657 110 410.838528924 105.5 378 c 1
 100.5 327.5 121.717773438 305.012207031 158.5 279.5 c 0
 169.262027262 253.900180091 206.928316166 239.901425593 248.5 227.27499555 c 1
 248.5 173.828169702 l 1
 190.687044164 187.825601417 124 205.636802542 110.5 258 c 0
 80 304.78520741 60.2715484598 347.634353839 75.9658203125 410.736816406 c 1
 86.607910156 431.209472656 115.223216024 450.081631991 154.5 460.5 c 1
 156.054522493 468.574467621 161.462882456 479.112394611 169.5 491.727484844 c 1
 169.5 561.227484844 224 608.886489394 258 608.886489394 c 1
EndSplineSet
EndChar

StartChar: uni003B
Encoding: 27 59 198
Width: 291
VWidth: 0
GlyphClass: 2
Flags: HW
LayerCount: 2
Back
Fore
SplineSet
116.245117188 335.658203125 m 0
 116.245117188 363.798828125 138.587890625 386.641601562 166.728515625 386.641601562 c 0
 194.869140625 386.641601562 217.2109375 363.798828125 217.2109375 335.658203125 c 0
 217.2109375 307.517578125 194.869140625 285.175292969 166.728515625 285.175292969 c 0
 138.587890625 285.175292969 116.245117188 307.517578125 116.245117188 335.658203125 c 0
155 -23 m 1
 72 -23 l 1
 109 129 l 1
 192 129 l 1
 155 -23 l 1
EndSplineSet
EndChar

StartChar: uni0037
Encoding: 23 55 199
Width: 435
VWidth: 0
GlyphClass: 2
Flags: HW
LayerCount: 2
Back
Fore
SplineSet
20 698 m 1
 409 698 l 1
 409 617 l 1
 403 611.5 373 515.5 369.5 506 c 1
 281.5 506 l 1
 312 616 l 1
 20 616 l 1
 20 698 l 1
271 453.5 m 1
 357 453.5 l 1
 318 303.5 289 154 273 0 c 1
 183 0 l 1
 200 158 229 298.5 271 453.5 c 1
EndSplineSet
EndChar

StartChar: uni0036
Encoding: 22 54 200
Width: 497
VWidth: 0
GlyphClass: 2
Flags: HW
LayerCount: 2
Back
Fore
SplineSet
280 425 m 1
 404 425 470.5 328.5 470.5 210.5 c 0
 470.5 85.5 381 0 280 -1 c 1
 280 80 l 1
 346.5 82 393.5 147.5 393.5 209.5 c 0
 393.5 312.5 325.5 346.5 280.5 349 c 1
 280 425 l 1
386 557.5 m 1
 368.5 585 338 616.5 285.5 616.5 c 1
 283.5 616.5 282 635.5 280 635.5 c 1
 319 635.5 348.5 678.5 366 649 c 1
 405 649 386 557.5 386 557.5 c 1
230.5 697 m 1
 230.5 615.5 l 1
 123.5 600 108 446 108 359.5 c 1
 135.5 404.5 185 425 230.5 425 c 1
 230.5 347 l 1
 180.625 347 154.5 298 154.5 259 c 0
 144.5 233 138.5 161.5 196.5 123 c 1
 196.5 103.5 211.5 63.5 230.5 61.5 c 1
 143 61.5 127.5 85.5 127 178.5 c 1
 39.1854884164 236.999154545 55.5 677 230.5 697 c 1
EndSplineSet
EndChar

StartChar: uni002F
Encoding: 15 47 201
Width: 401
VWidth: 0
GlyphClass: 2
Flags: HW
LayerCount: 2
Back
Fore
SplineSet
71.5 -23 m 1
 246.5 716 l 1
 329.5 716 l 1
 155.5 -23 l 1
 71.5 -23 l 1
EndSplineSet
EndChar

StartChar: uni00A3
Encoding: 97 163 203
Width: 520
VWidth: 0
GlyphClass: 2
Flags: HW
LayerCount: 2
Back
Fore
SplineSet
378 566 m 1
 363.767089844 595.082519531 340.639648438 623.75 297 623.75 c 0
 251.5 623.75 215.75 595 215.75 536.5 c 1
 215.75 378.75 l 1
 357.75 378.75 l 1
 357.75 306.25 l 1
 214.75 306.25 l 1
 214.75 73.25 l 1
 441.75 73.25 l 1
 441.75 0.25 l 1
 129.25 0.25 l 1
 129.25 305.25 l 1
 70.25 305.25 l 1
 70.25 377.75 l 1
 129.25 377.75 l 1
 129.25 533.5 l 1
 129.25 623 179.5 704.25 291 704.25 c 0
 291.5 704.25 292.5 704.25 293 704.25 c 0
 318.651367188 704.25 339.506347656 699.823242188 358.277832031 691.778320312 c 1
 404.0625 673.622070312 432.869628906 636.536621094 444.958984375 599.5390625 c 1
 378 566 l 1
EndSplineSet
EndChar

StartChar: uni0074
Encoding: 84 116 204
Width: 332
VWidth: -4
GlyphClass: 2
Flags: HW
LayerCount: 2
Back
Fore
SplineSet
270.100097656 83.145019531 m 2
 285.450195312 83.145019531 l 1
 304.799804688 -4.60498046875 l 1
 267.049804688 -4.60498046875 l 2
 138.950195312 -3.55517578125 105.350097656 64.6948242188 105.350097656 171.794921875 c 2
 105.350097656 433.294921875 l 1
 39.2001953125 433.294921875 l 1
 39.2001953125 517.694824219 l 1
 105.350097656 517.694824219 l 1
 105.350097656 730.395019531 l 1
 192.450195312 730.395019531 l 1
 192.450195312 517.694824219 l 1
 256.950195312 517.694824219 l 1
 256.950195312 433.294921875 l 1
 192.450195312 433.294921875 l 1
 192.450195312 162.345214844 l 2
 192.450195312 116.645019531 207.700195312 83.694824219 270.100097656 83.145019531 c 2
EndSplineSet
EndChar

StartChar: uni00FE
Encoding: 188 254 205
Width: 422
VWidth: 0
GlyphClass: 2
Flags: HW
LayerCount: 2
Back
Fore
SplineSet
232 0 m 2
 162.5 0 l 1
 162.5 78 l 1
 234 78 l 2
 282.5 78.5 316 105 316 150.5 c 2
 316 368 l 2
 316 409.5 279 438 228 438 c 2
 155.5 438 l 1
 155.5 516 l 1
 228 516 l 2
 335 516 396 431 396 375 c 2
 396 139 l 2
 396 86 345 0 232 0 c 2
30 700 m 1
 112.5 700 l 1
 112.5 -182 l 1
 30 -182 l 1
 30 700 l 1
EndSplineSet
EndChar

StartChar: uni0033
Encoding: 19 51 206
Width: 484
VWidth: 0
GlyphClass: 2
Flags: HW
LayerCount: 2
Back
Fore
SplineSet
95.5 558.5 m 1
 26 600 l 1
 59 656 117 698 195 698 c 1
 195 616 l 1
 162.5 616.5 121.5 600 95.5 558.5 c 1
254.5 80 m 1
 297.5 80 372 123.5 372 201 c 0
 372 270 345 307.5 238 307.5 c 1
 238 388.5 l 1
 348 388.5 369.5 429 369.5 499 c 0
 369.5 581.5 301.5 613.5 256 617 c 0
 255.003417969 617.057128906 253 617 252 617 c 1
 252 698 l 1
 386 695 453 582 453 508 c 0
 453 411 422 366 391 350 c 1
 419 331 458 284 458 199 c 0
 458 75 337 0 257 0 c 0
 256 0 256 0 255 0 c 1
 254.5 80 l 1
95.5 138.5 m 1
 123 94.5 147.5 83.5 195 81 c 1
 195 -1 l 1
 117 -1 60 30 26 97 c 1
 95.5 138.5 l 1
EndSplineSet
EndChar

StartChar: uni00BE
Encoding: 124 190 207
Width: 584
VWidth: 0
GlyphClass: 2
Flags: HW
LayerCount: 2
Back
Fore
SplineSet
79 214.5 m 1
 82.5 209.5 303 558.5 310 558 c 1
 323 558 l 1
 107 173 l 1
 79 214.5 l 1
EndSplineSet
EndChar

StartChar: uni02DC
Encoding: 287 732 208
Width: 333
VWidth: 0
GlyphClass: 2
Flags: HW
LayerCount: 2
Back
Fore
SplineSet
307 130 m 1
 273 109 246 102 223 102 c 0
 170 102 140 142 92 142 c 0
 74 142 52 136 26 120 c 1
 26 190.5 l 1
 54 206.5 77 212.5 96 212.5 c 0
 147 212.5 176 171.5 227 171.5 c 0
 249 171.5 274 179.5 307 199.5 c 1
 307 130 l 1
EndSplineSet
EndChar

StartChar: uni0032
Encoding: 18 50 209
Width: 480
VWidth: 0
GlyphClass: 2
Flags: HW
LayerCount: 2
Back
Fore
SplineSet
447 82.5 m 1
 447 0 l 1
 43 0 l 1
 43 82.5 l 1
 447 82.5 l 1
195 699.5 m 1
 195 617.5 l 2
 194.5 617.5 113.5 608 101.5 503.5 c 1
 24 520 l 1
 33 604 94.5 689 195 699.5 c 1
245 618 m 1
 245 700 l 1
 403.459943615 700 453.513889592 589.016856739 453 495.5 c 0
 452.169920232 400.358965748 405.089786001 361.379786905 340 322 c 0
 267.5 278 157 231.5 140 129.5 c 1
 44 129.5 l 1
 74 279.5 228.161004442 343.657984285 261.5 365 c 0
 311.22514821 397.19373218 371.5 420.529740486 371.5 495.5 c 0
 371.5 563 340.5 617 245 618 c 1
EndSplineSet
EndChar

StartChar: uni0075
Encoding: 85 117 210
Width: 444
VWidth: 0
GlyphClass: 2
Flags: HW
LayerCount: 2
Back
Fore
SplineSet
239.049804688 81.470214844 m 1
 275.049804688 81.470214844 304.799804688 110.970214844 304.799804688 134.970214844 c 2
 321.850097656 134.970214844 325.149902344 334.169921875 325.149902344 335.270019531 c 1
 345.149902344 539.870117188 l 1
 413.350097656 351.370117188 l 1
 413.350097656 327.306313448 386.350097656 73.020019531 330.350097656 73.020019531 c 1
 330.350097656 48.270019531 239.049804688 81.470214844 239.049804688 81.470214844 c 1
20.6499023438 539.870117188 m 1
 108.850097656 539.870117188 l 1
 108.850097656 149.270019531 l 1
 108.850097656 124.620117188 140.149902344 81.470214844 192.200195312 81.470214844 c 1
 194.950195312 61.470214844 l 1
 138.450195312 61.470214844 111.950195312 40.3576028687 111.950195312 65.919921875 c 1
 20.6499023438 539.870117188 l 1
EndSplineSet
EndChar

StartChar: uni005F
Encoding: 63 95 215
Width: 510
VWidth: 0
GlyphClass: 2
Flags: HW
LayerCount: 2
Back
Fore
SplineSet
480 -205 m 1
 30 -205 l 1
 30 -132.5 l 1
 480 -132.5 l 1
 480 -205 l 1
EndSplineSet
EndChar

StartChar: uni0076
Encoding: 86 118 220
Width: 409
VWidth: 0
GlyphClass: 2
Flags: HW
LayerCount: 2
Back
Fore
SplineSet
183.299804688 -0.0048828125 m 1
 6.39990234375 540.745117188 l 1
 103.149902344 541.294921875 l 1
 260.399902344 81.4951171875 l 1
 231.25 -0.0048828125 l 1
 183.299804688 -0.0048828125 l 1
315.049804688 541.294921875 m 1
 409.600097656 540.745117188 l 1
 283.5 160.395019531 l 1
 270.899902344 160.395019531 l 1
 227.700195312 286.694824219 l 1
 315.049804688 541.294921875 l 1
EndSplineSet
EndChar

StartChar: uni0077
Encoding: 87 119 221
Width: 591
VWidth: 0
GlyphClass: 2
Flags: HW
LayerCount: 2
Back
Fore
SplineSet
338.575195312 257.995117188 m 1
 187.475097656 359.245117188 l 1
 269.774902344 337.794921875 l 1
 338.125 119.995117188 l 1
 392.174804688 257.995117188 l 1
 338.575195312 257.995117188 l 1
269.475097656 -0.0048828125 m 1
 187.575195312 283.245117188 l 1
 270.475097656 306.794921875 l 1
 256.024902344 323.995117188 l 1
 216.174804688 257.995117188 l 1
 269.475097656 -0.0048828125 l 1
344.725097656 541.794921875 m 1
 394.524902344 541.245117188 l 1
 376.127849481 268.895187147 l 1
 343.725097656 190.895019531 l 1
 320.424804688 270.694824219 l 1
 324.424804688 270.694824219 l 1
 350.880883338 342.178798322 l 1
 393.924804688 216.694824219 l 1
 398.924804688 216.694824219 l 1
 405.924804688 239.694824219 l 1
 344.725097656 541.794921875 l 1
EndSplineSet
EndChar

StartChar: uni0078
Encoding: 88 120 222
Width: 399
VWidth: 0
GlyphClass: 2
Flags: HW
LayerCount: 2
Back
Fore
SplineSet
71.600097656 144.095214844 m 1
 89.8896484373 414.776367188 l 1
 82.2929687498 541.794921875 l 1
 131.08984375 477.444824219 l 1
 228.682128906 429.564941406 l 1
 366.338378906 540.745117188 l 1
 326.54296875 401.595214844 l 1
 312.807617187 130.990722656 l 1
 321.9296875 -0.0048828125 l 1
 270.890136719 69.294921875 l 1
 168.636230469 116.019042969 l 1
 28.4829101562 -0.0048828125 l 1
 71.600097656 144.095214844 l 1
EndSplineSet
EndChar

StartChar: uni0079
Encoding: 89 121 223
Width: 392
VWidth: 4
GlyphClass: 2
Flags: HW
LayerCount: 2
Back
Fore
SplineSet
159.350097656 122.220214844 m 1
 45.9501953125 196.270019531 l 1
 98.5 196.819824219 l 1
 178.350097656 239.919921875 l 1
 178.350097656 240.470214844 94.399902344 442.470214844 94.399902344 443.020019531 c 1
 148.549804688 323.120117188 l 1
 159.350097656 122.220214844 l 1
300 545.319824219 m 1
 391.549804688 544.770019531 l 1
 259.399902344 196.970214844 l 1
 250.299804688 196.970214844 l 1
 212.100097656 319.220214844 l 1
 300 545.319824219 l 1
EndSplineSet
EndChar

StartChar: uni00A5
Encoding: 99 165 226
Width: 510
VWidth: 0
GlyphClass: 2
Flags: HW
LayerCount: 2
Back
Fore
SplineSet
72.5 698 m 1
 161.5 698 l 1
 272.39265494 394.240129841 l 1
 381.5 698 l 1
 470.5 698 l 1
 341.492330473 341 l 1
 492 341 l 1
 492 301 l 1
 328.581555168 301 l 1
 321.5 273.29661017 l 1
 392 241.5 l 1
 492 212 l 1
 416 201 l 1
 316 83 l 1
 247.5 0 l 1
 227.5 119 l 1
 151 202 l 1
 50 230.5 l 1
 121.5 241.5 l 1
 214.5 269.5 l 1
 151 301.5 l 1
 50 330.5 l 1
 106 341.5 l 1
 202.560538116 341.5 l 1
 72.5 698 l 1
EndSplineSet
EndChar

StartChar: uni007A
Encoding: 90 122 227
Width: 356
VWidth: 0
GlyphClass: 2
Flags: HW
LayerCount: 2
Back
Fore
SplineSet
329.399902344 461.044921875 m 1
 118.25 83.944824219 l 1
 329.399902344 83.395019531 l 1
 329.399902344 0.044921875 l 1
 18.6000976562 0.044921875 l 1
 19.1000976562 82.345214844 l 1
 231.950195312 454.745117188 l 1
 18.6000976562 454.745117188 l 1
 18.6000976562 539.745117188 l 1
 329.399902344 539.745117188 l 1
 329.399902344 461.044921875 l 1
EndSplineSet
EndChar

StartChar: uni0030
Encoding: 16 48 229
Width: 1024
VWidth: 0
GlyphClass: 2
Flags: HW
LayerCount: 2
Back
Fore
SplineSet
404 698 m 1
 404 616.5 l 1
 352 610 306 522 304 398 c 0
 303.708007812 371.002929688 304 360 304 339 c 0
 304 170.5 355 88 403 81 c 1
 403 0 l 1
 337 3 221 60 221 353 c 0
 221 602 315 693 404 698 c 1
464 698 m 1
 553 693 647 602 647 353 c 0
 647 60 531 3 465 0 c 1
 465 81 l 1
 520 91.5 564.5 169 564.5 339 c 0
 564.5 360 564.5 371 564.5 398 c 0
 564.5 519 516.5 609.5 464 616.5 c 1
 464 698 l 1
EndSplineSet
EndChar

StartChar: uni0111
Encoding: 203 273 300
Width: 414
VWidth: 0
Flags: HW
LayerCount: 2
Back
Fore
SplineSet
123 444.5 m 2
 123 471 168 497 195.5 497 c 1
 254.5 438 l 1
 239.5 457 l 1
 226 456.5 164 445.5 164 444.5 c 2
 123 444.5 87 294.5 87 260 c 1
 87 259 90 129.5 104 129.5 c 2
 104 105 143.5 59 196.5 59 c 1
 254.5 0 l 1
 240.5 19 l 1
 188.5 19 105.5 67.5 105.5 89.5 c 2
 81.5 89.5 48 231.5 48 260 c 1
 48.5 282.5 72.5 444.5 123 444.5 c 2
416 626.5 m 1
 448 563 l 1
 416 582 l 1
 384 312.5 l 1
 321 349.5 l 1
 301 619 l 1
 269 582 l 1
 237 645.5 l 1
 269 626.5 l 1
 301 642.5 l 1
 364 349 l 1
 384 333 l 1
 416 626.5 l 1
EndSplineSet
EndChar

StartChar: uni02C9
Encoding: 282 713 309
Width: 416
VWidth: 0
Flags: HW
LayerCount: 2
Back
Fore
SplineSet
366 583 m 1
 366 527 l 1
 50 527 l 1
 50 583 l 1
 366 583 l 1
EndSplineSet
EndChar

StartChar: uni03C0
Encoding: 289 960 312
Width: 421
VWidth: 0
Flags: HW
LayerCount: 2
Back
Fore
SplineSet
438 -4 m 1
 388.596007011 -4 376.5 30.14453125 376.5 64.5 c 1
 328 66.5 299.5 270.5 299.5 305.5 c 1
 194.5 433.5 l 1
 128 192.5 l 1
 108 -4 l 1
 47 237 l 1
 -1 433.5 l 1
 -28 452.5 l 1
 212 516 l 1
 452 497 l 1
 405 433.5 l 1
 376.5 265.5 l 1
 376.5 213 398 88 416.5 88 c 1
 416.5 86 438 -4 438 -4 c 1
EndSplineSet
EndChar

StartChar: uni2113
Encoding: 307 8467 314
Width: 184
VWidth: 0
Flags: HW
LayerCount: 2
Back
Fore
SplineSet
212 -5 m 1
 152 -5 48 37.5 48 181.5 c 2
 48 700 l 1
 133.5 700 l 1
 133.5 181.5 l 1
 134 94 195.5 85 212 85 c 1
 212 -5 l 1
EndSplineSet
EndChar

StartChar: uni2126
Encoding: 309 8486 315
Width: 420
VWidth: 0
Flags: HW
LayerCount: 2
Back
Fore
SplineSet
134 427 m 1
 134 449.5 159.5 516 213 516 c 1
 267 516 295.5 470.421386719 295.5 446 c 1
 295.5 269.5 l 1
 295.5 253.900221783 282.024969961 229.265623103 260.434175654 213.5 c 1
 243.934175654 213.5 281 201 281 196 c 1
 281 76.5 l 1
 281 67 199.5 58 214.5 58 c 1
 217.5 58.0121220766 l 1
 217.002451245 58.0040593322 216.502451913 -1 216 -1 c 1
 126.5 18 l 1
 164 18 186 85 186 107 c 1
 209.296759983 212.5 l 1
 198.641240991 248.994071486 171.5 427 134 427 c 1
221 219 m 1
 221 243.375976562 247.759277344 257.5 303 257.5 c 1
 216 238.5 l 1
 176 238.5 154 263.5 154 240 c 1
 157 135.5 l 2
 172.5 114.5 200.5 89 237 94.5 c 1
 237 181 l 2
 235.990328135 189.5 231.990334615 198.515440391 216 198.545903963 c 2
 213 198.5 l 1
 126.5 257.5 l 1
 129.5 272.5 l 1
 181 272.5 246.646165998 225 246.646165998 202.5 c 1
 224.262151551 218.368905027 213.5 125.686748223 213.5 141 c 2
 213.5 130.846072174 221 219 221 219 c 1
EndSplineSet
EndChar

StartChar: uni212E
Encoding: 310 8494 316
Width: 460
VWidth: 0
Flags: HW
LayerCount: 2
Back
Fore
SplineSet
249.5 441 m 1
 247.5 459 l 1
 285.5 459 338.5 484.745605469 338.5 447 c 1
 341.5 381.5 l 1
 376.5 381.5 239 348.5 239 312.5 c 1
 239 176.5 l 1
 239 147 128 125 165 125 c 1
 165 70.5 l 1
 104.5 62 88.5 87.5 102.5 124.5 c 2
 105 242.5 l 1
 105 270 141 258 201 258 c 1
 198.5 239 l 1
 106.5 239 29.5 239 29.5 255 c 2
 29.5 331 l 1
 29.5 362.5 240.5 400.5 291.5 400.5 c 1
 294 442.5 l 1
 294 472 290 441 249.5 441 c 1
247.5 0 m 1
 247.5 76 l 1
 283 76 318 101.5 322.5 122.5 c 1
 338 123.5 377.5 126 379.5 136.5 c 1
 370 104.5 291.434570312 0 247.5 0 c 1
EndSplineSet
EndChar

StartChar: uni2202
Encoding: 311 8706 317
Width: 420
VWidth: 0
Flags: HW
LayerCount: 2
Back
Fore
SplineSet
49 511.5 m 1
 49 535.875764043 75.759412304 615 131 615 c 1
 190.5 615 234 586.5 261 559.5 c 1
 254.015148039 526.484851961 230 461.219057323 230 402.5 c 2
 230 265 l 1
 230 243.5 255.5 200.5 292 200.5 c 1
 292 70 l 1
 236.242109189 47.5 185.5 46.0878021063 133.5 70 c 2
 133.5 70 105 511.5 49 511.5 c 1
130.5 427 m 1
 130.5 449.5 156 516 209.5 516 c 1
 234.483985652 516 256.367255645 506.243415322 269.446925363 493.339685404 c 1
 269.446925363 583 197.5 542 131 542 c 1
 128 556 l 1
 221.5 556 270.329276747 510.499832968 270.200683594 406.5 c 2
 270 147.5 l 2
 270 113.574884239 248.320033787 58 209.5 58 c 1
 212.5 77 l 1
 250 77 272 53.5 272 75.5 c 1
 268.683919096 185.852203451 l 2
 214.5 208.5 165.395954913 427 130.5 427 c 1
EndSplineSet
EndChar

StartChar: uni2206
Encoding: 312 8710 318
Width: 414
VWidth: 0
Flags: HW
LayerCount: 2
Back
Fore
SplineSet
86.5 66.625 m 1
 207 533 l 1
 325 66.625 l 1
 86.5 66.625 l 1
409 0 m 1
 228 706 l 1
 184 706 l 1
 2 0 l 1
 409 0 l 1
EndSplineSet
EndChar

StartChar: uni220F
Encoding: 313 8719 319
Width: 458
VWidth: 0
Flags: HW
LayerCount: 2
Back
Fore
SplineSet
342 628.5 m 1
 342 -140 l 1
 408.5 -140 l 1
 408.5 628.5 l 1
 456 628.5 l 1
 456 694 l 1
 2 694 l 1
 2 628.5 l 1
 49 628.5 l 1
 49 -140 l 1
 115.5 -140 l 1
 115.5 628.5 l 1
 342 628.5 l 1
EndSplineSet
EndChar

StartChar: uni2211
Encoding: 314 8721 320
Width: 676
VWidth: 0
Flags: HW
LayerCount: 2
Back
Fore
SplineSet
496 703 m 1
 136 703 l 1
 136 694 l 1
 219 591 l 1
 496 591 l 1
 496 703 l 1
-2 703 m 1
 -2 593 l 1
 230 310 l 1
 -1 27 l 1
 -1 17 l 1
 144 17 l 1
 353 261 l 1
 353 358 l 1
 68 703 l 1
 -2 703 l 1
-2 -28 m 1
 -2 -140 l 1
 496 -140 l 1
 496 -28 l 1
 -2 -28 l 1
EndSplineSet
EndChar

StartChar: uni221A
Encoding: 318 8730 323
Width: 560
VWidth: 0
Flags: HW
LayerCount: 2
Back
Fore
SplineSet
128.778808594 511 m 1
 18.5 472 l 1
 6 513 l 1
 170.5 571.5 l 1
 362.280761719 95.6962890625 l 1
 498.5 819 l 1
 544 819 l 1
 393 -2 l 1
 334.5 -2 l 1
 128.778808594 511 l 1
EndSplineSet
EndChar

StartChar: uni221E
Encoding: 319 8734 324
Width: 420
VWidth: 0
Flags: HW
LayerCount: 2
Back
Fore
SplineSet
436.509765625 425 m 2
 436.509765625 474.387695312 492.482421875 578.650390625 609.915039062 578.650390625 c 2
 616.5 578.650390625 l 1
 616.5 449.14453125 l 1
 609.915039062 449.14453125 l 2
 573.697265625 449.14453125 568.209960938 421.70703125 568.209960938 410.732421875 c 1
 568.209960938 181.35546875 l 1
 568.209960938 160.502929688 576.990234375 140.747070312 609.915039062 140.747070312 c 2
 616.5 140.747070312 l 1
 616.5 11.2421875 l 1
 609.915039062 11.2421875 l 2
 491.384765625 11.2421875 436.509765625 118.797851562 436.509765625 167.087890625 c 2
 436.509765625 425 l 2
661.497070312 449.14453125 m 1
 661.497070312 578.650390625 l 1
 668.08203125 578.650390625 l 2
 781.125 578.650390625 836 474.387695312 836 425 c 2
 836 167.087890625 l 2
 836 117.700195312 782.22265625 11.2421875 668.08203125 11.2421875 c 2
 661.497070312 11.2421875 l 1
 661.497070312 140.747070312 l 1
 668.08203125 140.747070312 l 2
 702.10546875 141.844726562 707.592773438 167.087890625 707.592773438 179.16015625 c 1
 707.592773438 410.732421875 l 1
 707.592773438 429.389648438 701.0078125 449.14453125 668.08203125 449.14453125 c 2
 661.497070312 449.14453125 l 1
28 409 m 2
 28 454 79 549 186 549 c 2
 192 549 l 1
 192 431 l 1
 186 431 l 2
 153 431 148 406 148 396 c 1
 148 187 l 1
 148 168 156 150 186 150 c 2
 192 150 l 1
 192 32 l 1
 186 32 l 2
 78 32 28 130 28 174 c 2
 28 409 l 2
233 431 m 1
 233 549 l 1
 239 549 l 2
 342 549 392 454 392 409 c 2
 392 174 l 2
 392 129 343 32 239 32 c 2
 233 32 l 1
 233 150 l 1
 239 150 l 2
 270 151 275 174 275 185 c 1
 275 396 l 1
 275 413 269 431 239 431 c 2
 233 431 l 1
EndSplineSet
EndChar

StartChar: uni222B
Encoding: 320 8747 325
Width: 285
VWidth: 0
Flags: HW
LayerCount: 2
Back
Fore
SplineSet
1 -188 m 1
 64.5 -198 173 -147 173 -3 c 2
 173 625 l 2
 173 750.5 254.5 770 282 761 c 1
 282 807 l 1
 222 817 112.5 769 112.5 625 c 2
 112.5 -3 l 1
 112.5 -132 27 -148.5 1 -142 c 1
 1 -188 l 1
EndSplineSet
EndChar

StartChar: uni2248
Encoding: 321 8776 326
Width: 568
VWidth: 0
Flags: HW
LayerCount: 2
Back
Fore
SplineSet
518 221.5 m 1
 462 187.5 418 175.5 381 175.5 c 0
 289 175.5 239 248.5 157 248.5 c 0
 127 248.5 92 239.5 50 212.5 c 1
 50 297 l 1
 95 323 132 332 163 332 c 0
 250 332 299 259 387 259 c 0
 422 259 464 271 518 304 c 1
 518 221.5 l 1
518 411 m 1
 462 377 418 365 381 365 c 0
 289 365 239 438 157 438 c 0
 127 438 92 429 50 402 c 1
 50 487 l 1
 95 513 132 522 163 522 c 0
 250 522 299 449 387 449 c 0
 422 449 464 461 518 494 c 1
 518 411 l 1
EndSplineSet
EndChar

StartChar: uni2264
Encoding: 323 8804 327
Width: 414
VWidth: 0
Flags: HW
LayerCount: 2
Back
Fore
SplineSet
409 -35 m 1
 5.5 -35 l 1
 5.5 37.5 l 1
 409 37.5 l 1
 409 -35 l 1
EndSplineSet
EndChar

StartChar: uni2265
Encoding: 324 8805 328
Width: 414
VWidth: 0
Flags: HW
LayerCount: 2
Back
Fore
SplineSet
207 310 m 1
 28.5 245 l 1
 116.5 225 l 1
 207 182 l 1
 207 310 l 1
EndSplineSet
EndChar

StartChar: uni25CA
Encoding: 325 9674 329
Width: 420
VWidth: 0
Flags: HW
LayerCount: 2
Back
Fore
SplineSet
354.5 352 m 1
 213 263 l 1
 158 175 l 1
 101 264 l 1
 199.5 441 l 1
 215.5 441 l 1
 354.5 352 l 1
187.5 352 m 1
 192.5 683 l 1
 138 529 l 1
 311.5 198 l 1
 187.5 352 l 1
EndSplineSet
EndChar
